<?xml version="1.0" encoding="utf-8"?>
<!-- Generator: Adobe Illustrator 24.2.1, SVG Export Plug-In . SVG Version: 6.00 Build 0)  -->
<svg version="1.1" id="Layer_1" xmlns="http://www.w3.org/2000/svg" xmlns:xlink="http://www.w3.org/1999/xlink" x="0px" y="0px"
	 viewBox="0 0 1103.3 569.8" style="enable-background:new 0 0 1103.3 569.8;" xml:space="preserve">
<style type="text/css">
	.st0{fill-rule:evenodd;clip-rule:evenodd;fill:#182939;}
</style>
<path class="st0" d="M595,522.6C286.6,522.6,32.6,293.9,0,0v120.3c4.1,12.2,9.3,28,10.7,31.7c2.4,5.9,16.3,41.8,17.2,45.6
	c0.3,1.2,0.4,2.6,0.4,4.1c0,3.4-0.7,7.3-1.9,10.4c-1.8,4.5-9.2,11-9.2,11l21.6,38.7c0,0,5.2-1.8,8.5-2.4c3.3-0.6,9.3,0.6,13.5,2
	c4.2,1.3,7.1,3.8,9.9,8.3s25.2,36.2,31.4,43.9c6.2,7.6,25.2,31,26.3,33.7c0.7,1.7,1.2,4.9,1.2,8.1c0,2.1-0.2,4.1-0.8,5.6
	c-1.4,3.8-7.3,9.6-7.3,9.6l32.9,31.9c0,0,10.6-6.1,19.2-6.8c4.1-0.4,9.5,3.3,13.7,6.4c4.2,3.1,39.6,30.3,42.2,32.3
	c2.5,1.9,31.8,23.1,34.3,24.7s4.1,4.9,4.2,10.6v0.5c0,5.6-0.9,13.4-0.9,13.4l37.5,21.5c0,0,8.6-8.4,12-10.2
	c3.4-1.7,10.5-1.8,14.9-1.2s18,7.4,18,7.4l34,13.6l33.5,10.6c0,0,8.6,3.3,10.8,5.2s4.5,5.8,5.4,9.8s2.6,12.4,2.6,12.4l44.3,10.7
	c0,0,2.1-5,3.7-8.5c1.4-3.7,5.5-7.4,8.8-9.3c3.3-2,11.8-3.1,11.8-3.1l29.2,2.7l38.6,3.6c0,0,24.6,0.6,28.6,0.9
	c4,0.3,7.3,1.7,10.6,5.2c3.3,3.6,6,14.8,6,14.8l44.6-3c0,0,0.9-3.6,2.1-6.9c1.4-3.9,4.6-7.7,6.4-10.1c3.4-4.6,8-6.1,8-6.1l51.4-9.7
	l41.4-10.5c0,0,10.3,0.1,13.4,0.6c3.1,0.5,6.6,3.8,9.1,5.8s6.2,9.1,6.2,9.1l42.1-15.2c0,0-1.3-10.5-1.3-14.8c0-0.2,0-0.4,0-0.6
	c0.1-3.7,2.3-8.3,5.6-11.2c3.4-2.9,11.3-5.2,11.3-5.2l19.6-9.6l27.5-14.6l31-17.4l7.4-2.1c0,0,8.5,0.3,12.4,1.6
	c3.9,1.3,8.9,7.6,8.9,7.6l37.2-26.3c0,0-4.8-7.9-4.8-10.6c0-1-0.1-2.5-0.1-4.1c0-2.6,0.2-5.8,1.3-8.6c1.7-4.6,3.8-6.7,3.8-6.7
	l30.7-27.6l29.9-32.1c0,0,6.4-6.8,10.9-9.6c4.5-2.9,8.2-3,12.5-3c4.4,0,13.7,3.8,13.7,3.8l3.7-4.7v-82.1
	C997.6,412,809.5,522.6,595,522.6z"/>
</svg>
