<?xml version="1.0" encoding="utf-8"?>
<!-- Generator: Adobe Illustrator 24.2.1, SVG Export Plug-In . SVG Version: 6.00 Build 0)  -->
<svg version="1.1" id="Layer_1" xmlns="http://www.w3.org/2000/svg" xmlns:xlink="http://www.w3.org/1999/xlink" x="0px" y="0px"
	 viewBox="0 0 569.8 1103.3" style="enable-background:new 0 0 569.8 1103.3;" xml:space="preserve">
<style type="text/css">
	.st0{fill-rule:evenodd;clip-rule:evenodd;fill:#182939;}
</style>
<path class="st0" d="M47.2,595c0-308.5,228.7-562.4,522.6-595H449.4c-12.2,4.1-28,9.3-31.7,10.7c-5.9,2.4-41.8,16.3-45.6,17.2
	c-1.2,0.3-2.6,0.4-4.1,0.4c-3.4,0-7.3-0.7-10.4-1.9c-4.5-1.8-11-9.2-11-9.2l-38.7,21.6c0,0,1.8,5.2,2.4,8.5c0.6,3.3-0.6,9.3-2,13.5
	c-1.3,4.2-3.8,7.1-8.3,9.9s-36.2,25.2-43.9,31.4c-7.6,6.2-31,25.2-33.7,26.3c-1.7,0.7-4.9,1.2-8.1,1.2c-2.1,0-4.1-0.2-5.6-0.8
	c-3.8-1.4-9.6-7.3-9.6-7.3l-31.9,32.9c0,0,6.1,10.6,6.8,19.2c0.4,4.1-3.3,9.5-6.4,13.7c-3.1,4.2-30.3,39.6-32.3,42.2
	c-1.9,2.5-23.1,31.8-24.7,34.3s-4.9,4.1-10.6,4.2h-0.5c-5.6,0-13.4-0.9-13.4-0.9l-21.5,37.5c0,0,8.4,8.6,10.2,12
	c1.7,3.4,1.8,10.5,1.2,14.9s-7.4,18-7.4,18l-13.6,34L44.4,417c0,0-3.3,8.6-5.2,10.8s-5.8,4.5-9.8,5.4S17,435.8,17,435.8L6.3,480.1
	c0,0,5,2.1,8.5,3.7c3.7,1.4,7.4,5.5,9.3,8.8c2,3.3,3.1,11.8,3.1,11.8l-2.7,29.2l-3.6,38.6c0,0-0.6,24.6-0.9,28.6
	c-0.3,4-1.7,7.3-5.2,10.6c-3.6,3.3-14.8,6-14.8,6L3,662c0,0,3.6,0.9,6.9,2.1c3.9,1.4,7.7,4.6,10.1,6.4c4.6,3.4,6.1,8,6.1,8l9.7,51.4
	l10.5,41.4c0,0-0.1,10.3-0.6,13.4c-0.5,3.1-3.8,6.6-5.8,9.1s-9.1,6.2-9.1,6.2L46,842.1c0,0,10.5-1.3,14.8-1.3c0.2,0,0.4,0,0.6,0
	c3.7,0.1,8.3,2.3,11.2,5.6c2.9,3.4,5.2,11.3,5.2,11.3l9.6,19.6l14.6,27.5l17.4,31l2.1,7.4c0,0-0.3,8.5-1.6,12.4
	c-1.3,3.9-7.6,8.9-7.6,8.9l26.3,37.2c0,0,7.9-4.8,10.6-4.8c1,0,2.5-0.1,4.1-0.1c2.6,0,5.8,0.2,8.6,1.3c4.6,1.7,6.7,3.8,6.7,3.8
	l27.6,30.7l32.1,29.9c0,0,6.8,6.4,9.6,10.9c2.9,4.5,3,8.2,3,12.5c0,4.4-3.8,13.7-3.8,13.7l4.7,3.7h82.1
	C157.8,997.6,47.2,809.5,47.2,595z"/>
</svg>
