<?xml version="1.0" encoding="utf-8"?>
<!-- Generator: Adobe Illustrator 24.2.1, SVG Export Plug-In . SVG Version: 6.00 Build 0)  -->
<svg version="1.1" id="Layer_1" xmlns="http://www.w3.org/2000/svg" xmlns:xlink="http://www.w3.org/1999/xlink" x="0px" y="0px"
	 viewBox="0 0 1254 1269" style="enable-background:new 0 0 1254 1269;" xml:space="preserve">
<style type="text/css">
	.st0{fill-rule:evenodd;clip-rule:evenodd;fill:#182939;}
</style>
<path class="st0" d="M1229.3,735.9c-1.9-3.2-3.1-11.6-3.1-11.6l2.7-28.7l3.6-38c0,0,0.6-24.2,0.9-28.1c0.3-4,1.6-7.2,5.2-10.4
	c3.5-3.2,14.7-5.9,14.7-5.9l-3-43.8c0,0-3.6-0.9-6.8-2c-3.9-1.4-7.6-4.5-10.1-6.3c-4.6-3.4-6.1-7.9-6.1-7.9l-9.6-50.5l-10.4-40.6
	c0,0,0.1-10.1,0.6-13.1c0.5-3.1,3.7-6.5,5.7-9c2-2.5,9-6.1,9-6.1l-15-41.4c0,0-10.4,1.2-14.6,1.2c-0.2,0-0.4,0-0.6,0
	c-3.7-0.1-8.2-2.2-11.1-5.5c-2.9-3.3-5.1-11.1-5.1-11.1l-9.6-19.3l-14.3-27l-17.2-30.4l-2.1-7.3c0,0,0.4-8.4,1.6-12.1
	c1.3-3.8,7.5-8.8,7.5-8.8l-26-36.5c0,0-7.8,4.7-10.5,4.7c-1,0-2.5,0.1-4.1,0.1c-2.6,0-5.7-0.2-8.6-1.2c-4.6-1.7-6.6-3.8-6.6-3.8
	l-27.4-30.1l-31.8-29.3c0,0-6.7-6.2-9.6-10.7c-2.9-4.5-2.9-8-2.9-12.3c0-4.3,3.8-13.4,3.8-13.4l-34.7-27.9c0,0-5.8,7.6-9,9.1
	c-2.6,1.2-7,2.3-11.7,2.3c-1.1,0-2.3-0.1-3.4-0.2c-5.9-0.7-25.2-14.2-25.2-14.2s-12.4-6.8-26-14.3c-12-6.6-25.3-13.9-28.8-15.8
	c-7.5-4.1-11.9-7.6-14.2-13.9c-2.2-6.3,0.4-17.9,0.4-17.9l-41.8-16.2c0,0-4.5,6.5-7.2,9.5c-2.8,3.1-5.3,5.4-15.6,5.9
	c-0.4,0-0.8,0-1.2,0c-10.3,0-25.4-6.8-51.2-11.7c-26.8-5-44.8-6.8-50.1-12.6c-5.3-5.8-6.4-20.3-6.4-20.3l-45-1.3
	c0,0-4.8,17-17.2,19.4l-5,0.6v0.4l-3.1,0.4c-10.2,1-25.6,1.7-35.9,2.2c-13.8,0.6-37.2,3.7-51.2,3.7c-3,0-5.5-0.1-7.5-0.5
	C523.5,25.7,514.4,8,514.4,8l-44.3,10.5c0,0-0.9,11-1.9,16.1c-1,5.1-5.6,8-10.3,9.5c-4.7,1.6-28.1,10.3-38.3,13.9
	c-10.2,3.6-37.1,14.7-37.1,14.7s-8.2,5.3-14.6,6c-1.5,0.2-3,0.2-4.5,0.2c-4.9,0-9.4-0.9-11.7-2.7c-2.9-2.4-8.4-9.7-8.4-9.7
	l-38.5,20.5c0,0,3.4,14.2,1.8,19.6c-1.6,5.4-5.6,9.4-5.6,9.4s-29.8,21.4-37,26.7c-7.2,5.3-33.7,27.1-33.7,27.1s-7.9,5.6-11.3,6.3
	c-1,0.2-2.1,0.3-3.2,0.3c-2.6,0-5.4-0.5-7.3-0.9c-2.7-0.6-10.9-6-10.9-6L166,201.9c0,0,3.7,3.9,5.4,7.8c1.6,3.6,1.1,7.1,1.6,9.2
	c1,4.4-2,8.7-4.2,11.7c-2.1,3-26.5,33.8-31.7,40.7c-5.2,6.9-25.5,37-25.5,37s-6.3,5.3-10.8,5.9c-0.4,0-0.8,0.1-1.3,0.1
	c-5,0-14.5-2.7-14.5-2.7l-21,38.3l6.3,6.2c0,0,4.5,6.9,5.3,11.2c0.8,4.3-1.3,11.7-1.3,11.7s-17.4,40.3-20.2,49.3
	c-2.9,9-11.7,38.4-11.7,38.4s-4.5,7.8-8.5,10.5c-4,2.8-15.8,3.2-15.8,3.2l-10,45c0,0,7.6,4.1,11.4,6.9c3.7,2.8,6,11.2,6,11.2
	s-3.6,40.8-3.9,50.1c-0.3,9.3-2.2,49-2.2,49s-3.6,7.4-7.6,10.6c-4,3.2-11.9,5.7-11.9,5.7l1,45.6c0,0,4.7,1.2,8.7,2.2
	c4.4,1.1,9.3,2.6,10.7,3.8c2.7,2.2,5.1,9.5,6.5,16c1.4,6.5,7.8,43.5,9.3,50.7c1.5,7.2,9,35.3,9.3,39.7c0.2,4.4-1.5,8.9-4.1,12.2
	c-2.6,3.4-10.7,8.4-10.7,8.4l14.8,44.5c0,0,5.3-2.7,9.9-2.7h0c4.4,0,9.2,0.9,11.2,1.7c4,1.5,6.7,7.4,9,12.2
	c2.3,4.7,19.2,38.6,22.8,44.6c3.6,6.1,20.8,34.3,21.4,36.7c0.6,2.4-0.3,10.1-1.1,13.6c-0.9,3.5-8.3,12.3-8.3,12.3l26.9,35.2
	c0,0,2.8-0.7,5.4-2.8c2.7-2.1,8.6-2.6,11.3-2.6h0c2.7,0,7.7,1.8,11.2,5.4c3.5,3.7,32,35.5,36.9,39.7c4.9,4.2,28.5,26.6,31.3,30.4
	c2.8,3.8,3.1,7.5,3.1,12.6c-0.1,5.1-6.2,13.3-6.2,13.3l36.1,27c0,0,4.4-5.4,6.7-6.8c2.4-1.5,8.7-3,11.6-3.1c0.2,0,0.3,0,0.5,0
	c2.8,0,5.8,0.8,9.8,2.5c4.2,1.8,39.3,23.1,46.9,27.2c7.6,4.1,35.6,18,37.8,19.6c2.2,1.6,4.7,6,5.6,10.7c0.8,4.7,0,15.7,0,15.7
	l40.8,14.9c0,0,4.8-6.9,7.7-10.5c2.8-3.6,7.3-3.5,10.8-4.7c1-0.3,2.4-0.5,4.2-0.5c4.3,0,10.1,0.9,12.6,2.1
	c3.5,1.6,36.4,10.2,44.1,11.5c7.7,1.2,33.8,6.4,33.8,6.4s6.2,1.2,9,3.4c2.8,2.1,5,3.8,7.9,7.9c3,4.2,1.5,13.4,1.5,13.4l46.1,0.8
	c0,0,2.7-4,3.3-7.4c0.6-3.4,5.1-8,9.6-10.1c1.1-0.5,2.5-0.9,4-1.3l4.3-0.7v-0.2l0.6-0.1c3.3-0.4,6.5-0.5,8.4-0.5h1
	c6.6,0,36.2-0.1,43.7-1.5c7.4-1.4,34.7-4.9,41.2-4.9c0.5,0,0.8,0,1.1,0.1c3.4,0.6,7.7,2.1,10.8,6.2s7.2,12.4,7.2,12.4l43-9.3
	c0,0,0.6-11.8,1.8-16.6c1.2-4.8,5.2-7.6,9.7-9.8c4.6-2.2,39.8-13.3,45.7-15.7c5.8-2.3,41.4-16.1,45.2-16.9c1.2-0.3,2.6-0.4,4.1-0.4
	c3.4,0,7.3,0.7,10.3,1.9c4.4,1.8,10.9,9.1,10.9,9.1L948,1182c0,0-1.7-5.1-2.4-8.4c-0.6-3.3,0.6-9.2,2-13.3c1.3-4.1,3.7-6.9,8.2-9.7
	c4.4-2.8,35.9-24.7,43.5-30.8c7.6-6.1,30.7-24.7,33.4-25.9c1.7-0.7,4.9-1.2,8-1.2c2,0,4,0.2,5.5,0.8c3.7,1.4,9.5,7.2,9.5,7.2
	l31.6-32.3c0,0-6-10.4-6.8-18.8c-0.4-4,3.3-9.4,6.4-13.5c3.1-4.1,30-38.9,31.9-41.4c1.9-2.5,22.8-31.2,24.5-33.8
	c1.6-2.5,4.9-4,10.5-4.1h0.5c5.5,0,13.2,0.9,13.2,0.9l21.3-36.8c0,0-8.3-8.5-10.1-11.8c-1.7-3.3-1.8-10.4-1.2-14.7
	c0.6-4.3,7.3-17.7,7.3-17.7l13.4-33.4l10.5-32.9c0,0,3.3-8.4,5.2-10.6c1.9-2.2,5.7-4.4,9.7-5.3c4-0.9,12.3-2.6,12.3-2.6l10.6-43.5
	c0,0-5-2-8.4-3.7C1234.9,743.2,1231.2,739.1,1229.3,735.9z M625.1,1223.7v0.2c-320.5,0-580.3-263.4-580.3-588.2
	c0-324.9,259.8-588.2,580.3-588.2v-0.4c321.1,0,581.3,263.4,581.3,588.4C1206.4,960.2,946.2,1223.7,625.1,1223.7z"/>
</svg>
