<?xml version="1.0" encoding="utf-8"?>
<!-- Generator: Adobe Illustrator 24.2.1, SVG Export Plug-In . SVG Version: 6.00 Build 0)  -->
<svg version="1.1" id="Layer_1" xmlns="http://www.w3.org/2000/svg" xmlns:xlink="http://www.w3.org/1999/xlink" x="0px" y="0px"
	 viewBox="0 0 634 1144.9" style="enable-background:new 0 0 634 1144.9;" xml:space="preserve">
<style type="text/css">
	.st0{fill-rule:evenodd;clip-rule:evenodd;fill:#F0F0F0;}
</style>
<path class="st0" d="M609.9,610.7c-2-3.3-3.1-11.8-3.1-11.8l2.7-29.2l3.6-38.6c0,0,0.6-24.6,0.9-28.6c0.3-4,1.7-7.3,5.2-10.6
	c3.6-3.3,14.8-6,14.8-6l-3-44.6c0,0-3.6-0.9-6.9-2.1c-3.9-1.4-7.7-4.6-10.1-6.4c-4.6-3.4-6.1-8-6.1-8l-9.7-51.4l-10.5-41.4
	c0,0,0.1-10.3,0.6-13.4c0.5-3.1,3.8-6.6,5.8-9.1c2-2.5,9.1-6.2,9.1-6.2l-15.2-42.1c0,0-10.5,1.3-14.8,1.3c-0.2,0-0.4,0-0.6,0
	c-3.7-0.1-8.3-2.3-11.2-5.6c-2.9-3.4-5.2-11.3-5.2-11.3l-9.6-19.6L532,198.5l-17.4-31l-2.1-7.4c0,0,0.3-8.5,1.6-12.4
	c1.3-3.9,7.6-8.9,7.6-8.9l-26.3-37.2c0,0-7.9,4.8-10.6,4.8c-1,0-2.5,0.1-4.1,0.1c-2.6,0-5.8-0.2-8.6-1.3c-4.6-1.7-6.7-3.8-6.7-3.8
	l-27.6-30.7l-32.1-29.9c0,0-6.8-6.4-9.6-10.9c-2.9-4.5-3-8.2-3-12.5c0-4.4,3.8-13.7,3.8-13.7L392.2,0h-82.1
	c166.1,105.7,276.7,293.8,276.7,508.3c0,330.6-262.7,598.6-586.8,598.6v26.1l0.6-0.1c3.3-0.4,6.6-0.5,8.5-0.5h1
	c6.6,0,36.6-0.1,44.2-1.5c7.5-1.4,35-5,41.6-5c0.5,0,0.9,0,1.1,0.1c3.5,0.6,7.8,2.2,10.9,6.3c3.1,4.1,7.3,12.6,7.3,12.6l43.4-9.5
	c0,0,0.6-12.1,1.8-16.9c1.2-4.8,5.2-7.7,9.8-10c4.6-2.2,40.2-13.6,46.1-15.9c5.9-2.4,41.8-16.3,45.6-17.2c1.2-0.3,2.6-0.4,4.1-0.4
	c3.4,0,7.3,0.7,10.4,1.9c4.5,1.8,11,9.2,11,9.2l38.7-21.6c0,0-1.8-5.2-2.4-8.5c-0.6-3.3,0.6-9.3,2-13.5c1.3-4.2,3.8-7.1,8.3-9.9
	c4.5-2.8,36.2-25.2,43.9-31.4c7.6-6.2,31-25.2,33.7-26.3c1.7-0.7,4.9-1.2,8.1-1.2c2.1,0,4.1,0.2,5.6,0.8c3.8,1.4,9.6,7.3,9.6,7.3
	l31.9-32.9c0,0-6.1-10.6-6.8-19.2c-0.4-4.1,3.3-9.5,6.4-13.7c3.1-4.2,30.3-39.6,32.3-42.2c1.9-2.5,23.1-31.8,24.7-34.3
	c1.6-2.5,4.9-4.1,10.6-4.2h0.5c5.6,0,13.4,0.9,13.4,0.9l21.5-37.5c0,0-8.4-8.6-10.2-12c-1.7-3.4-1.8-10.5-1.2-14.9
	c0.6-4.4,7.4-18,7.4-18l13.6-34l10.6-33.5c0,0,3.3-8.6,5.2-10.8c1.9-2.2,5.8-4.5,9.8-5.4c4-0.9,12.4-2.6,12.4-2.6l10.7-44.3
	c0,0-5-2.1-8.5-3.7C615.5,618.1,611.8,614,609.9,610.7z"/>
</svg>
