<?xml version="1.0" encoding="utf-8"?>
<!-- Generator: Adobe Illustrator 24.2.1, SVG Export Plug-In . SVG Version: 6.00 Build 0)  -->
<svg version="1.1" id="Layer_1" xmlns="http://www.w3.org/2000/svg" xmlns:xlink="http://www.w3.org/1999/xlink" x="0px" y="0px"
	 viewBox="0 0 2751 476" style="enable-background:new 0 0 2751 476;" xml:space="preserve">
<style type="text/css">
	.st0{clip-path:url(#SVGID_2_);}
	.st1{fill-rule:evenodd;clip-rule:evenodd;fill:#FFFFFF;}
</style>
<g>
	<defs>
		<rect id="SVGID_1_" width="2751" height="476"/>
	</defs>
	<clipPath id="SVGID_2_">
		<use xlink:href="#SVGID_1_"  style="overflow:visible;"/>
	</clipPath>
	<g class="st0">
		<path class="st1" d="M2434,265h48v11.8h-35.2v37.3h35.2V325h-48V265z"/>
		<path class="st1" d="M2482,265h9.3c28.7,0,39.8,13.6,39.8,30c0,16.4-11.1,30-39.8,30h-9.3v-10.9h9.3c20.3,0,26.3-8.6,26.3-18.6
			s-6-18.6-26.3-18.6h-9.3V265z"/>
		<path class="st1" d="M2569.8,265h69.6v11h-69.6c-8.7,0-10.5,3.2-10.5,6.9c0,3.7,1.8,6.9,10.5,6.9h49.4c16.9,0,23.8,7.8,23.8,17.9
			c0,10.1-6.4,17.4-23.8,17.4h-69.6v-10.5h69.6c8.7,0,10.5-3.2,10.5-6.9c0-3.7-1.8-6.9-10.5-6.9h-49.4c-16.9,0-23.8-7.8-23.8-17.9
			C2546,272.8,2552.4,265,2569.8,265z"/>
		<path class="st1" d="M2686.3,340h28c0.5,0,1.4,0,1.8,0.5c1.4,0.9,1.8,2.8,0.9,4.1l-6,14.3c-1.4,2.8-3.2,5.5-5.1,8.3l-39.9,53.5
			c-0.5,0.5-0.5,0.5-0.9,0.9c-1.4,1.4-3.7,0.9-5.1-0.9l-18.3-22.6c-1.8-2.3-1.8-5.5,0-7.8l36.7-46.6
			C2680.4,341.4,2683.1,340,2686.3,340z"/>
		<path class="st1" d="M2628.8,404.2c1.3,0.2,2.6,0.9,3.5,2.1l18.9,22.8c0.5,0,0.5,0.5,0.5,0.5c1.4,1.8,0.5,4.6-1.4,5.9l-53,35.1
			c-0.5,0-0.5,0.5-0.9,0.5c-1.9,0.9-4.2,0-5.1-2.3l-13.4-28.8c-0.9-2.3,0-5.5,2.3-6.8l44.7-28.3
			C2626.1,404.2,2627.4,404,2628.8,404.2z"/>
		<path class="st1" d="M2608.7,341h52.6c2.8,0,3.7,1.4,1.8,3.7l-29.1,36.5c-0.5,0.5-0.9,0.9-1.4,1.4c-1.4,0.5-3.2,0-4.1-1.8
			l-22.2-35.6C2605,342.8,2605.9,341,2608.7,341z"/>
		<path class="st1" d="M2591.3,343.2c0.7,0.2,1.4,0.6,1.9,1.3l26.5,43.8c1.4,2.3,0.9,5.5-1.4,6.9l-40.6,26.3
			c-0.5,0.5-0.9,0.5-1.8,0.5c-1.4,0-2.7-1.4-2.7-2.8l-5-41.5c0-2.8,0.5-6,2.3-8.8l17.8-24.4c0-0.5,0.4-0.5,0.9-0.9
			C2589.7,343.1,2590.5,343,2591.3,343.2z"/>
		<path class="st1" d="M2364.2,341h28c2.8,0,6,1.4,7.8,3.7l37.2,45.8c1.8,2.3,1.8,5.5,0,7.8l-18.8,22.5l-0.9,0.9
			c-1.4,1.4-3.7,0.9-5.1-0.9l-39.9-53.1c-1.8-2.3-3.7-5.5-5.1-8.2l-6-13.7c-0.5-0.5-0.5-1.4-0.5-1.8
			C2361,341.9,2362.4,341,2364.2,341z"/>
		<path class="st1" d="M2447.8,403.2c1.3-0.2,2.7,0,3.9,0.7l44.2,29.7c2.8,1.4,3.2,4.2,2.3,7l-13.4,29.2c0,0.5-0.4,0.5-0.4,0.9
			c-1.4,1.9-3.7,2.3-5.5,0.9l-52.4-36.2c0-0.5-0.5-0.5-0.5-0.5c-1.8-1.9-1.8-4.6-0.5-6.5l18.9-23.2
			C2445.2,404.2,2446.4,403.5,2447.8,403.2z"/>
		<path class="st1" d="M2469.3,340c2.8,0,3.7,1.8,2.3,4.1l-22.4,35.6c-0.5,0.5-0.9,0.9-1.4,1.4c-1.9,0.9-3.7,0.5-4.7-0.9l-29.3-36.1
			c-1.9-1.8-0.9-3.7,1.8-3.7L2469.3,340z"/>
		<path class="st1" d="M2487.3,344.2c0.8,0.2,1.4,0.6,1.9,1.3l18,23.7c1.8,2.3,2.8,5.5,2.3,8.7l-5.1,41c0.5,0.5,0,1.4-0.5,1.8
			c-0.9,1.4-2.8,1.4-4.1,0.5l-41.1-25.5c-2.3-1.4-2.8-4.6-1.4-6.8l26.8-43.3c0-0.5,0.5-0.5,0.9-0.9
			C2485.8,344.1,2486.6,344,2487.3,344.2z"/>
		<path class="st1" d="M2504.7,340h68.1c2.8,0,3.2,1.8,1.9,4.1l-13.9,18.8c-1.8,2.3-4.6,4.1-7.9,4.1h-28.2c-3.2-0.5-6-1.8-7.9-4.1
			l-13.9-18.8C2501,341.8,2501.9,340,2504.7,340z"/>
		<path class="st1" d="M2526,379h26.5c2.7,0.5,5,2.3,5.5,5l5,39v0.9c0,2.3-1.8,4.1-4.1,4.1h-39.8c-2.3-0.5-4.1-2.7-3.7-5l5-39
			C2520.9,381.3,2523.2,379,2526,379z"/>
		<path class="st1" d="M2516.7,439v0.5h45.1c2.8,0.5,5.5,1.8,6.9,4.6l12.9,27.9c0.5,0.5,0.5,0.9,0.5,1.8c0,1.4-1.8,2.3-3.2,2.3
			h-78.6c-0.9,0-1.8,0-2.3-0.5c-1.4-0.9-1.8-2.7-0.9-4.1l12.9-27.9C2511.2,440.8,2513.9,439,2516.7,439z"/>
		<path class="st1" d="M2654.9,0.5c2.8-0.5,4.1,0.9,3.2,3.7l-8.3,24.8c-0.9,2.8-3.7,4.6-6.4,4.6h-21.2c-3.2,0-6.4,0.5-9.7,1.4
			l-30.4,8.7c-2.3,0.5-4.1-0.9-3.2-3.7l5.5-19.7c0.9-3.2,3.2-5,6-6L2654.9,0.5z"/>
		<path class="st1" d="M2670.3,6.2c0.8-0.2,1.9,0.2,2.8,1.1l49.1,57.5l0.5,0.5c1.4,2.3,0.9,5-0.9,6.4l-20.9,15.5
			c-2.3,1.8-5,1.4-6.8-0.9l-32.7-43.8c-1.8-2.7-2.3-5.9-1.4-8.7l8.6-25.6C2668.8,7,2669.4,6.3,2670.3,6.2z"/>
		<path class="st1" d="M2728.1,81c1.8,0,3.2,0.9,3.2,2.7L2749,167v1.4c-0.4,2.3-1.8,3.7-4.1,3.7h-19.1c-2.7,0-5-1.8-5.9-4.6
			l-16.4-62.6c-0.4-2.7,0.5-5.9,2.7-7.8l20-15.1C2726.7,81.5,2727.6,81,2728.1,81z"/>
		<path class="st1" d="M2727,183h20.3c2.3,0.5,3.7,2.7,3.2,5l-7.4,56c-0.5,2.7-2.8,5-5.5,5h-19.4c-2.3-0.5-3.2-2.7-2.8-4.6l5.5-24.6
			c0.5-3.2,0.9-6.4,0.9-9.6v-21.4c0-2.7,2.3-5,5.1-5V183z"/>
		<path class="st1" d="M2704.8,222.5c0.5-0.5,1.4,0,1.9,0c1.4,0.9,2.3,2.3,1.8,4.1l-4.2,18.5c-0.5,2.7-3.2,5-6,5h-77.7
			c-2.8,0-3.7-1.4-1.8-3.6l6.5-7.2c2.3-2.3,5.1-4.1,8.3-4.5L2704.8,222.5z"/>
		<path class="st1" d="M2688.5,107.5c2.3-0.5,4.1,0.9,4.6,2.8l16.5,64c0.9,3.2,1.4,6.4,1.4,9.7v20.7c0,2.8-1.8,5.5-4.6,6l-73,12.9
			c-3.2,0.5-6-0.5-8.3-2.8l-30.3-35c-1.8-2.3-1.8-5.5-0.5-7.8l18.4-28.1c1.8-2.8,4.1-5.1,6.9-6.4l68-35.5
			C2687.6,107.5,2688,107.5,2688.5,107.5z"/>
		<path class="st1" d="M2626.6,45h18.4c2.8,0.5,5.5,1.8,7.4,4.1l32.2,42.4c0,0.5,0.5,0.5,0.5,0.9c0.9,2.3,0,4.6-1.9,5.5l-65.4,33.7
			c-2.3,1.4-5.5,0.5-6.9-1.8l-16.1-25.5c-1.4-2.3-1.8-5.5-0.5-8.2l24.9-46.5C2621.1,46.8,2623.9,45,2626.6,45z"/>
		<path class="st1" d="M2423.1,0.5l64.5,13.6c2.8,0.9,5,3.2,6,5.9l5.5,19.5c0.9,2.7-0.5,4.5-3.2,3.6l-29.7-8.2
			c-3.2-0.9-6.4-1.4-9.6-1.4l-22-0.5c-2.7,0-5.5-1.8-6.4-4.5l-8.2-24.5C2419,1.4,2420.4,0,2423.1,0.5z"/>
		<path class="st1" d="M2407.2,6c1.4,0,2.8,0.9,2.8,2.3l9.2,25.8c0.9,3.2,0.5,5.9-1.4,8.6l-33,43c-1.8,2.3-4.6,2.3-6.9,0.9
			l-21.1-15.4l-0.5-0.5c-1.8-1.8-2.3-4.5-0.5-6.3l49.5-57.1C2405.8,6.5,2406.3,6,2407.2,6z"/>
		<path class="st1" d="M2347.4,81.9c0.9-0.9,2.8-0.9,4.1,0l20.3,14.7c2.3,1.8,3.2,5.1,2.8,7.8l-16.6,63c-0.5,2.8-3.2,4.6-6,4.6
			h-20.7c-2.3-0.5-3.2-2.8-2.8-4.6l18-83.6C2346.4,82.8,2346.9,82.4,2347.4,81.9z"/>
		<path class="st1" d="M2332.1,184h18.9c2.8,0,5.1,2.3,5.1,5h0.5v20.9c0,3.2,0.5,6.4,0.9,9.6l5.5,25.5v1.4c-0.5,2.3-1.8,3.6-4.1,3.6
			h-18c-2.8-0.5-5.1-2.3-5.5-5l-7.4-56v-0.9C2328,185.8,2329.9,184,2332.1,184z"/>
		<path class="st1" d="M2372.7,222.5l71.1,12.2c3.2,0.9,6,2.3,8.3,4.5l6.5,7.2c1.4,1.8,0.9,3.6-1.9,3.6h-77.6c-2.8-0.5-5.5-2.3-6-5
			l-4.2-18.5v-1.8C2369.5,222.9,2370.9,222,2372.7,222.5z"/>
		<path class="st1" d="M2387.5,108.2c0.9-0.2,1.9-0.1,2.9,0.3l67.2,35.3c2.8,1.8,5,3.7,6.9,6.4l18.3,27.9c1.4,2.3,1.4,5.5-0.5,7.8
			l-29.7,34.8c-2.3,1.8-5.5,3.2-8.2,2.7l-72.7-12.8c-2.7-0.9-4.6-3.2-4.6-6v-20.6c0-3.2,0.5-6.4,1.4-9.6l16.5-63.2
			c0-0.5,0.4-0.9,0.4-1.4C2385.7,109,2386.5,108.5,2387.5,108.2z"/>
		<path class="st1" d="M2433.2,45h18.3c3.2,0.5,5.9,1.8,7.3,4.6l24.7,46.7c1.4,2.3,0.9,5.5-0.5,8.2l-16.5,25.2
			c-1.4,2.3-4.6,3.2-6.9,1.8l-65.1-33.9c-0.5,0-0.5-0.5-0.9-0.5c-1.8-1.4-1.8-3.7-0.5-5.5l32.1-42.6C2427.3,46.8,2430,45,2433.2,45z
			"/>
		<path class="st1" d="M2508.7,16.5h59.2c0.5-0.5,0.9,0,1.4,0c1.8,0.5,2.8,2.8,2.3,4.6l-6,21.3c-0.5,2.8-3.2,4.6-6,4.6h-42.2
			c-2.8,0-5-1.9-6-4.6l-6-21.3c-0.4-0.5-0.4-0.9-0.4-1.4C2505,17.9,2506.8,16.5,2508.7,16.5z"/>
		<path class="st1" d="M2601.3,49.5c2.3-0.5,3.7,0.9,2.3,3.2L2583.5,91c-1.8,2.7-4.6,4.6-7.3,4.6l-75.4,0.5
			c-3.2-0.5-5.9-1.8-7.3-4.6l-20.1-38.3c-1.4-2.7-0.5-4.1,2.3-3.2l27,7.3c3.2,0.9,6.4,1.4,9.6,1.4h51.7c3.2,0,6.4-0.5,9.6-1.4
			L2601.3,49.5z"/>
		<path class="st1" d="M2500.6,107h76.7c3.2,0,6,1.8,7.8,4.1l17.5,26.5c1.4,2.7,1.4,5.5,0,8.2l-17.9,27c-1.4,2.3-4.1,4.1-7.3,4.1
			h-76.7c-2.8,0-5.5-1.8-7.3-4.1l-17.9-27c-1.4-2.7-1.4-5.5,0-8.2l17.5-26.5C2494.7,108.8,2497.4,107,2500.6,107z"/>
		<path class="st1" d="M2499.9,188h77.6c3.2,0,6,1.4,8.3,3.7l29.4,34.7c1.8,1.9,1.8,5.1,0,7.4l-10.6,12.5c-2.3,2.3-5.1,3.7-8.3,3.7
			h-115.7c-3.2,0-6-1.4-8.3-3.7l-10.6-12.5c-1.8-1.9-1.8-5.1,0-7.4l29.8-34.7C2494,189.4,2496.7,188,2499.9,188z"/>
		<path class="st1" d="M71.7,339c5.1,0,10.2,1.4,14.3,4.6c2.3,1.8,4.2,4.1,4.6,7.3l-9.2,2.3c-0.5-1.8-2.3-6-9.7-6
			c-7.4,0-9.2,3.7-9.2,6.4c0,4.1,4.6,5.5,7.4,6.4l9.2,2.3c4.6,1.4,13.9,3.7,13.9,15.1C93,388,83.8,394,71.7,394
			c-6,0-11.6-1.4-16.2-5c-2.8-2.3-4.6-5-5.5-8.7l9.7-1.8c0.5,3.2,2.8,6,6,6.9c2.3,0.9,4.6,0.9,6.5,0.9c8.8,0,10.6-4.6,10.6-6.9
			c0-5-4.2-6.4-6.5-6.9l-12-3.2c-6.9-0.9-12-7.3-11.6-14.2C52.8,345,61.1,339,71.7,339z"/>
		<path class="st1" d="M143,341h10.2l10.2,38l9.7-38h9.7l10.7,38l10.2-38h8.3l-14.4,52h-10.2l-10.7-38.4l-9.7,38.4h-9.7L143,341z"/>
		<path class="st1" d="M266,341h10v52h-10V341"/>
		<path class="st1" d="M351.7,339c5.1,0,10.2,1.4,14.8,4.6c2.3,1.8,3.7,4.1,4.6,6.9l-9.2,2.3c-0.5-1.8-2.3-6-9.7-6
			c-7.4,0-9.2,3.7-9.2,6.4c0,4.1,4.6,5.5,7.4,6.4l8.8,2.3c4.6,1.4,13.9,3.7,13.9,15.1c0,10.5-9.2,16.5-21.3,16.5
			c-6,0.5-11.6-1.4-16.2-5c-2.8-2.3-4.6-5-5.5-8.7l9.7-1.4c0.5,3.2,3.2,6,6,6.9c2.3,0.5,4.2,0.9,6.5,0.9c8.8,0,10.6-4.6,10.6-6.9
			c0-5-4.2-6.4-6.5-6.9l-12-3.2c-6.9-1.4-12-7.3-11.6-14.2C332.8,345,341.1,339,351.7,339z"/>
		<path class="st1" d="M447.2,339c5,0,9.9,1.4,14,4.6c2.3,1.9,3.6,4.2,4.5,6.9l-9,2.3c-0.5-1.8-2.3-6-9.5-6c-7.2,0-9,3.7-9,6.5
			c0,4.2,4.5,5.5,7.2,6.5l9,2.3c4.5,1.4,13.5,3.7,13.5,15.3c0,10.6-9,16.6-20.8,16.6c-5.9,0-11.3-1.4-15.8-5.1
			c-2.7-2.3-4.5-5.1-5.4-8.8l9.5-1.4c0.5,3.2,2.7,6,5.9,6.9c2.3,0.9,4.5,0.9,6.3,0.9c8.6,0,10.4-4.6,10.4-6.9c0-5.1-4.1-6.5-6.3-6.9
			l-11.7-3.2c-6.8-0.9-11.7-7.4-11.3-14.3C428.7,345,436.8,339,447.2,339z"/>
		<path class="st1" d="M593,341h10l10,38l9.6-38h9.6l10.5,38l10-38h8.2l-14.1,52h-10l-10.5-38.4l-9.6,38.4h-9.6L593,341z"/>
		<path class="st1" d="M722.4,341h4.6v9l-7.8,23.1h7.8v7.7h-9.6l-4.1,12.2H705L722.4,341z"/>
		<path class="st1" d="M727,341h6.9l18.1,52h-10.2l-4.2-12.2H727v-7.7h7.9L727,350V341z"/>
		<path class="st1" d="M797,341h38v8.1h-14.2V393h-10.1v-43.9H797V341z"/>
		<path class="st1" d="M906,340c10.9,0,17.8,6.8,19.6,18.6l-8.7,0.9c-0.9-4.1-2.7-11.8-10.5-11.8c-10.5,0-10.9,14.5-10.9,19.1
			c0,15,5.9,19.1,11.4,19.1c5.9-0.5,10.5-5,10.5-10.9l8.7,0.9c-0.5,10.4-9.6,18.2-20,17.7c-17.8,0-21-17.7-21-26.8
			C885,353.2,891.4,340,906,340z"/>
		<path class="st1" d="M984,341h9.5v21.3h20V341h9.5v52h-9.5v-22.6h-20V393H984V341z"/>
		<path class="st1" d="M1081,341h33.6v7.7h-24v14h19.5v7.7h-19.5v14.5h24.5v8.1h-34V341z"/>
		<path class="st1" d="M1188.3,339c5.1,0,10.2,1.4,14.8,4.6c2.3,1.8,3.7,4.1,4.6,6.9l-9.3,2.3c-0.5-1.8-2.3-6-9.7-6
			s-9.3,3.7-9.3,6.4c0,4.1,4.6,5.5,7.4,6.4l9.3,2.3c7.9,0.9,13.9,7.3,13.9,15.1c0,10.5-8.8,16.5-21.3,16.5c-6,0.5-11.6-1.4-16.2-5
			c-2.8-2.3-4.6-5-5.6-8.7l8.8-1.4c0.5,3.2,3.2,6,6,6.9c2.3,0.5,4.2,0.9,6.5,0.9c8.8,0,10.6-4.6,10.6-6.9c0-5-4.2-6.4-6.5-6.9
			l-11.6-3.2c-6.9-1.4-12-7.3-11.6-14.2C1169.3,345,1177.6,339,1188.3,339z"/>
		<path class="st1" d="M1352.3,339c5.1,0,10.2,1.4,14.8,4.6c2.3,1.9,3.7,4.2,4.6,6.9l-9.3,2.3c-0.5-1.8-2.3-6-9.7-6
			s-9.3,3.7-9.3,6.5c0,4.2,4.6,5.5,7.4,6.5l9.3,2.3c4.6,1.4,13.9,3.7,13.9,15.3c0,10.6-9.3,16.6-21.3,16.6c-6,0-11.6-1.4-16.2-5.1
			c-2.8-2.3-4.6-5.1-5.6-8.8l9.3-1.4c0.5,3.2,2.8,6,6,6.9c2.3,0.9,4.2,0.9,6.5,0.9c8.8,0,10.6-4.6,10.6-6.9c0-5.1-4.2-6.5-6.5-6.9
			l-12-3.2c-6.9-1.4-11.6-7.4-11.6-14.3C1333.3,345,1341.6,339,1352.3,339z"/>
		<path class="st1" d="M1429,341h10v52h-10V341"/>
		<path class="st1" d="M1527.7,340h7.3v53h-8.2l-20.4-33.4c-0.5-0.9-2.3-5-2.7-5.9V393h-7.7v-52.5h10.4l18.1,30.6
			c0,0.5,1.4,2.7,3.2,5.9V340z"/>
		<path class="st1" d="M1614,340c10.9,0,17.8,6.8,19.6,18.6l-8.7,0.9c-0.9-4.1-2.7-11.8-10.5-11.8c-10.5,0-10.9,14.5-10.9,19.1
			c0,15,5.9,19.1,11.4,19.1c5.9-0.5,10.5-5,10.5-10.9l8.7,0.9c-0.5,10.4-9.6,18.2-20,17.7c-17.8,0-21-17.7-21-26.8
			C1593,353.2,1599.4,340,1614,340z"/>
		<path class="st1" d="M1690,341h34v7.7h-24.3v14h19.3v7.7h-19.8v14.5h24.8v8.1h-34V341z"/>
		<path class="st1" d="M1862.5,340v0.5h6.5V394h-9.7v-41.2c-4.2,4.1-8.8,7.3-14.3,9.6v-9.6c5.1-1.4,9.7-4.1,13.4-7.8
			C1859.8,343.7,1861.6,341.8,1862.5,340z"/>
		<path class="st1" d="M1957,340v5.9l-1.6,0.1c-3.1,0.5-7.3,2.2-7.3,6.7c0,3.4,2.1,5.3,6.9,7.2l2,0.7v11l-2.8-1
			c-7,1.8-8.8,6-8.8,8.7s2.1,5.8,6.7,7.1l5,0.6v6.8l-7.8-1c-7.7-2.1-12.2-7-12.2-13.2c0-8.3,7.9-11.5,11.2-12.9
			c-6.1-1.8-9.8-6.9-9.8-12.4c0-5.9,3.7-11.2,11-13.5L1957,340z"/>
		<path class="st1" d="M1957.9,340c11.9,0,18.8,5.5,18.8,13.7c-0.5,5.5-4.1,10.1-9.2,11.4c6.4,1.8,11,7.3,11.5,13.7
			c0,7.8-6.9,15.1-21.1,15.1l-0.9-0.1v-6.8l0.4,0.1c8.3,0,11-3.7,11-6.9c0-3.4-2.6-5.3-7.9-7.4l-3.5-1.2v-10.9l3.7,1.3
			c2.8-1.4,7.3-3.2,7.3-8.7c0-5.5-6.4-7.3-10.1-7.3l-0.9,0.1v-5.9L1957.9,340z"/>
		<path class="st1" d="M2055,340v5.9l-1.5,0.1c-2.9,0.5-6.9,2.2-6.9,6.7c0,3.4,2,5.3,6.5,7.2l1.9,0.7v11.1l-3.1-1.1
			c-5.7,1.8-7.9,6-7.9,8.7s2,5.8,6.3,7.1l4.7,0.6v6.8l-7.4-1c-7.3-2.1-11.6-7-11.6-13.2c0-8.3,7.1-11.5,10.6-12.9
			c-5.7-1.8-9.3-6.9-9.3-12.4c0-5.9,3.5-11.2,10.4-13.5L2055,340z"/>
		<path class="st1" d="M2055.9,340c11.5,0,18.8,5.5,18.8,13.7c-0.5,5.5-4.1,10.1-9.2,11.4c6.4,1.8,11,7.3,11.5,13.7
			c0,7.8-6.9,15.1-21.1,15.1l-0.9-0.1v-6.8l0.4,0.1c8.3,0,11-3.7,11-6.9c0-3.4-2.6-5.3-8.1-7.4l-3.3-1.1v-11l3.7,1.3
			c2.8-1.4,7.3-3.2,7.3-8.7c0-5.5-6.4-7.3-10.1-7.3l-0.9,0.1v-5.9L2055.9,340z"/>
		<path class="st1" d="M2154,340v6l-5.3,1.1c-2,1-3.8,2.7-3.8,5.7c0,3.4,2,5.3,6.7,7.2l2.4,0.8v10.9l-3.2-1.1
			c-6.4,1.8-8.2,6-8.2,8.7c0,1.8,0.9,3.8,2.8,5.3l8.5,2.4v7l-8.1-1c-7.5-2.1-11.9-7-11.9-13.2c0-8.3,7.7-11.5,10.9-12.8
			c-5.5-1.8-9.1-6.9-9.5-12.4c0-5.8,3.6-11.2,10.7-13.5L2154,340z"/>
		<path class="st1" d="M2154.5,340c12.2,0,19.2,5.5,19.2,13.7c-0.5,5.5-4.2,10.1-9.4,11.4c6.6,1.8,11.2,7.3,11.7,13.7
			c0,7.8-7,15.1-21.5,15.1l-0.5-0.1V387l0.5,0.1c8.4,0,11.2-3.7,11.2-6.9c0-3.4-2.6-5.3-8.3-7.4l-3.4-1.1v-10.9l3.3,1.1
			c2.8-1.4,7.5-3.2,7.5-8.7c0-5.5-6.6-7.3-10.3-7.3l-0.5,0.1v-6L2154.5,340z"/>
		<path class="st1" d="M1409,16h53v234h-53V16"/>
		<path class="st1" d="M1526,16h63.1l176.5,177.7V16h49.4v234h-61.3L1575.4,71.9V250H1526V16z"/>
		<path class="st1" d="M1062,16h301v47.2h-124.3V250h-52.3V63.2H1062V16z"/>
		<path class="st1" d="M384,16h275v47.2H433.3v46.3h217.9v47.2H433.3v46.3H659V250H384V16z"/>
		<path class="st1" d="M723,16h154v47.3H772.9v46.3H877v46.8H772.9V250H723V16z"/>
		<path class="st1" d="M877,16h64.3c40.7,0,89.2,12.4,89.2,72c0,38.1-23.8,61.5-69.1,67l89.6,95h-65.4l-87.8-93.6H877v-46.8h65.2
			c34.3,0,38.9-12.4,38.9-22.9c0-16.5-12.3-23.4-41.2-23.4H877V16z"/>
		<path class="st1" d="M141.7,16h177.9v46.8H144c-64.2,0-94,22-94,69.7c0,47.7,30.3,70.2,95.8,70.2H320V250H151.3
			C49.5,250,0,211.9,0,133C0,58.7,51.3,16,141.7,16z"/>
		<path class="st1" d="M2015.9,17h25.1v46.1l-65.3,90.9l-1.8,2.7h67.1v46.1h-100.5l-33.3,47.1H1846L2015.9,17z"/>
		<path class="st1" d="M2041,17h25.7L2237,250h-61.5l-34-47.1H2041v-46.1h67.5l-1.8-2.7L2041,63.1V17z"/>
	</g>
</g>
</svg>
