<?xml version="1.0" encoding="utf-8"?>
<!-- Generator: Adobe Illustrator 24.2.1, SVG Export Plug-In . SVG Version: 6.00 Build 0)  -->
<svg version="1.1" id="Vrstva_1" xmlns="http://www.w3.org/2000/svg" xmlns:xlink="http://www.w3.org/1999/xlink" x="0px" y="0px"
	 viewBox="0 0 320.8 79" style="enable-background:new 0 0 320.8 79;" xml:space="preserve">
<style type="text/css">
	.st0{fill:#182939;}
</style>
<path class="st0" d="M50,0l1.3,14.8H50c-1.8-4.5-4.3-7.7-7.6-9.6c-3.6-2-7.7-3.1-11.9-2.9C26.9,2.2,23.3,3,20,4.5
	c-3.1,1.5-5.7,3.9-7.4,7c-1.9,3.7-2.8,7.8-2.7,11.9c-0.1,3.6,0.8,7.1,2.5,10.2c1.8,3,4.4,5.3,7.6,6.6c3.7,1.6,7.6,2.4,11.6,2.3
	c3.4,0.1,6.8-0.5,10-1.8c2.9-1.2,6.1-3.6,9.5-7.1l1.3,0.7c-2.7,3.6-6.2,6.5-10.2,8.4c-4.4,1.9-9.1,2.8-13.9,2.7
	c-9.7,0-17.2-2.7-22.5-8c-3.8-3.6-6-8.7-5.9-14c0-4.3,1.4-8.5,3.9-11.9C6.7,7.7,10.4,4.8,14.7,3c4.7-2,9.8-3.1,15-3
	c4.3,0,8.5,0.8,12.5,2.3C43,2.7,43.9,2.9,44.8,3c0.7,0,1.4-0.2,2-0.6c0.8-0.6,1.3-1.5,1.6-2.4L50,0z"/>
<path class="st0" d="M117.5,1v1.2c-1.7,0.1-3.3,0.6-4.7,1.5c-1.7,1.3-3.1,2.9-4.1,4.8L88.4,45.4h-1.7L64.8,8.1
	c-0.7-1.3-1.4-2.5-2.4-3.6c-0.8-0.7-1.7-1.2-2.7-1.6c-1.4-0.4-2.8-0.7-4.3-0.7V1h24v1.2c-2.7,0.2-4.5,0.5-5.3,1
	c-0.7,0.4-1.2,1.1-1.2,1.9c0,1.1,0.7,2.7,2,5L90,35.5l13.8-25.1c1.4-2.5,2-4.2,2-5.1c-0.1-0.8-0.6-1.4-1.3-1.8
	c-1.3-0.7-2.7-1.1-4.2-1.2l-0.7-0.1V1L117.5,1z"/>
<path class="st0" d="M158.5,0v14.8h-1.6c-0.4-2.5-1.3-4.8-2.8-6.8c-1.5-1.8-3.5-3.2-5.7-4c-2.4-1-5.1-1.5-7.7-1.5
	c-2.6-0.1-5.2,0.6-7.5,2c-2,1.3-2.9,2.9-2.9,4.6c0.1,1.4,0.7,2.8,1.9,3.6c1.8,1.6,6,3.7,12.8,6.4c3.8,1.4,7.6,3.1,11.2,5
	c1.8,1,3.4,2.4,4.6,4.1c1,1.5,1.6,3.2,1.6,5c0,3.3-1.7,6.1-5.1,8.5c-3.4,2.4-7.8,3.6-13.3,3.6c-1.6,0-3.2-0.1-4.8-0.3
	c-0.9-0.1-2.7-0.5-5.5-1.2c-1.7-0.5-3.5-0.8-5.3-1c-0.6,0-1.2,0.1-1.7,0.5c-0.5,0.5-0.9,1.2-0.9,2H124V30.5h1.6c0.5,2.5,1.5,4.9,3,7
	c1.6,1.8,3.6,3.1,5.8,3.8c2.7,1,5.6,1.6,8.6,1.5c3.6,0,6.4-0.7,8.5-2.1c2.1-1.4,3.1-3.1,3.1-5c0-1.2-0.5-2.3-1.2-3.3
	c-1-1.3-2.3-2.3-3.7-3c-1.1-0.7-4.2-2-9.2-4.1c-3.7-1.4-7.3-3.1-10.7-5c-1.9-1-3.5-2.4-4.8-4.1c-1.1-1.4-1.7-3.1-1.6-4.9
	c0-3.1,1.6-5.8,4.8-8c3.2-2.2,7.3-3.3,12.3-3.4c3.4,0,6.7,0.6,9.9,1.7c1.1,0.4,2.2,0.7,3.4,0.8c0.6,0,1.3-0.1,1.8-0.5
	c0.6-0.5,1-1.2,1.1-2L158.5,0z"/>
<path class="st0" d="M217.1,1l0.6,10.2h-1.6c-0.2-1.4-0.6-2.7-1.3-3.8c-0.9-1.2-2.1-2.2-3.6-2.7c-1.9-0.7-3.9-0.9-5.9-0.9h-8.3v33.2
	c0,2.7,0.4,4.3,1.2,5c1.1,0.9,2.8,1.3,5.1,1.3h2.1v1.2h-25.1v-1.2h2.1c2.5,0,4.3-0.5,5.3-1.7c0.6-0.7,1-2.2,1-4.7V3.7h-7
	c-2-0.1-3.9,0.1-5.8,0.4c-1.5,0.4-2.8,1.2-3.9,2.3c-1.1,1.3-1.8,2.9-1.9,4.7h-1.6l0.7-10.2L217.1,1z"/>
<path class="st0" d="M247.8,2.3c-4.7,0-8.5,1.4-11.4,4.3c-3.6,3.6-5.4,8.8-5.4,15.8c0,7.1,1.8,12.5,5.5,16.4
	c2.9,2.9,6.6,4.4,11.3,4.4c4.6,0.2,9.1-1.6,12.4-4.8c3.2-3.2,4.9-8.2,4.9-15c0-7.4-1.8-13-5.4-16.6C256.8,3.7,252.9,2.3,247.8,2.3
	 M248.6,0c6.6-0.1,13,2.2,18,6.4c4.9,3.9,7.7,9.8,7.6,16c0.1,6.4-2.7,12.4-7.7,16.4c-5.2,4.4-11.8,6.7-18.5,6.5
	c-7.3,0-13.5-2.1-18.5-6.4c-4.9-4-7.6-10.1-7.5-16.5c0-6.9,2.9-12.5,8.6-16.9C235.9,1.8,242.2-0.2,248.6,0"/>
<path class="st0" d="M316.9,0v14.8h-1.6C315,12.4,314,10,312.5,8c-1.5-1.8-3.5-3.2-5.7-4c-2.4-1-5.1-1.5-7.7-1.5
	c-2.6-0.1-5.2,0.6-7.5,2c-2,1.4-2.9,2.9-2.9,4.6c0.1,1.4,0.7,2.8,1.9,3.6c1.8,1.6,6,3.7,12.8,6.4c3.8,1.4,7.6,3.1,11.2,5
	c1.8,1,3.4,2.4,4.6,4.1c1,1.5,1.6,3.2,1.6,5c0,3.3-1.7,6.1-5.1,8.5c-3.4,2.4-7.8,3.6-13.2,3.6c-1.6,0-3.2-0.1-4.8-0.3
	c-0.9-0.1-2.7-0.5-5.5-1.2c-1.7-0.5-3.5-0.8-5.3-1c-0.6,0-1.2,0.1-1.7,0.5c-0.5,0.5-0.8,1.2-0.9,2h-1.6V30.5h1.6
	c0.5,2.5,1.5,4.9,3,7c1.6,1.8,3.6,3.1,5.8,3.8c2.7,1,5.6,1.6,8.6,1.5c3.6,0,6.4-0.7,8.5-2.1s3.1-3.1,3.1-5c0-1.2-0.5-2.3-1.2-3.3
	c-1-1.3-2.3-2.3-3.7-3c-1.1-0.7-4.2-2-9.2-4.1c-3.7-1.4-7.3-3.1-10.7-5c-1.9-1-3.5-2.4-4.8-4.1c-1.1-1.4-1.6-3.1-1.6-4.9
	c0-3.1,1.6-5.8,4.8-8c3.2-2.2,7.3-3.3,12.3-3.4c3.4,0,6.7,0.6,9.9,1.7c1.1,0.4,2.2,0.7,3.4,0.8c0.7,0,1.3-0.1,1.8-0.5
	c0.6-0.5,1-1.2,1.1-2L316.9,0z"/>
<polygon class="st0" points="50.3,69.6 50.3,70.6 43.2,70.6 43.2,79 40.5,79 40.5,70.6 33.5,70.6 33.5,69.6 "/>
<polygon class="st0" points="55.4,69.6 55.4,73.7 67.9,73.7 67.9,69.6 70.6,69.6 70.6,79 67.9,79 67.9,74.7 55.4,74.7 55.4,79 
	52.7,79 52.7,69.6 "/>
<polygon class="st0" points="88.9,69.6 88.9,70.6 77.6,70.6 77.6,73.7 88.5,73.7 88.5,74.7 77.6,74.7 77.6,77.9 89.1,77.9 89.1,79 
	74.9,79 74.9,69.6 "/>
<polygon class="st0" points="116.8,69.6 116.8,70.6 109.7,70.6 109.7,79 107,79 107,70.6 100,70.6 100,69.6 "/>
<rect x="119.2" y="69.6" class="st0" width="2.7" height="9.4"/>
<polygon class="st0" points="130.1,69.6 137.8,77.6 137.8,77.6 145.4,69.6 149.7,69.6 149.7,79 147,79 147,70.8 147,70.8 139.1,79 
	136.4,79 128.5,70.8 128.5,70.8 128.5,79 125.8,79 125.8,69.6 "/>
<polygon class="st0" points="168.1,69.6 168.1,70.6 156.7,70.6 156.7,73.7 167.6,73.7 167.6,74.7 156.7,74.7 156.7,77.9 168.3,77.9 
	168.3,79 154,79 154,69.6 "/>
<polygon class="st0" points="183.5,69.6 183.5,73.7 185.4,73.7 194.6,69.6 198.1,69.6 187.9,74.1 198.6,79 194.9,79 185.3,74.7 
	183.5,74.7 183.5,79 180.8,79 180.8,69.6 "/>
<polygon class="st0" points="215.3,69.6 215.3,70.6 203.9,70.6 203.9,73.7 214.9,73.7 214.9,74.7 203.9,74.7 203.9,77.9 215.5,77.9 
	215.5,79 201.3,79 201.3,69.6 "/>
<polygon class="st0" points="232.4,69.6 232.4,70.6 221,70.6 221,73.7 231.9,73.7 231.9,74.7 221,74.7 221,77.9 232.5,77.9 
	232.5,79 218.3,79 218.3,69.6 "/>
<path class="st0" d="M237.8,70.7v3.8h6.9c0.9,0,1.8,0,2.7-0.1c0.9-0.1,1.4-0.4,1.5-0.9c0.1-0.4,0.1-0.7,0.1-1.1
	c0.1-0.6-0.3-1.2-0.9-1.4c-1.1-0.2-2.2-0.3-3.4-0.3H237.8z M235.2,69.7h9.2c1.9-0.1,3.8,0.1,5.7,0.5c0.6,0.2,1.1,0.6,1.4,1.1
	c0.2,0.4,0.2,0.8,0.2,1.3c0,0.3,0,0.7-0.1,1c-0.2,0.6-0.7,1.1-1.3,1.3c-0.9,0.4-1.9,0.6-2.9,0.6c-0.7,0-1.6,0.1-2.6,0.1h-6.9V79
	h-2.7L235.2,69.7z"/>
<polygon class="st0" points="268.6,69.6 268.6,70.6 257.3,70.6 257.3,73.7 268.2,73.7 268.2,74.7 257.3,74.7 257.3,77.9 268.8,77.9 
	268.8,79 254.6,79 254.6,69.6 "/>
<path class="st0" d="M274.2,70.7v3.7h7.4c0.4,0,1,0,1.6-0.1c0.7,0,1.5-0.2,2.1-0.5c0.3-0.3,0.5-0.8,0.4-1.2c0-0.3-0.1-0.7-0.2-1
	c-0.1-0.3-0.5-0.5-1.1-0.6c-0.6-0.1-1.3-0.2-1.9-0.2H281L274.2,70.7z M271.6,69.7h11.2c0.5,0,1,0,1.5,0c0.6,0,1.2,0.1,1.8,0.3
	c0.4,0.1,0.9,0.2,1.3,0.4c0.8,0.4,1.2,1.2,1.2,2.1c0,0.6-0.2,1.1-0.5,1.5c-0.9,0.5-1.8,0.8-2.8,0.9l0,0c0.8,0,1.7,0.3,2.4,0.7
	c0.4,0.3,0.6,0.7,0.6,1.2V79h-2.7v-1.8v-0.3c0-0.2-0.1-0.4-0.1-0.5c-0.1-0.5-0.7-0.8-1.8-0.9c-0.5,0-0.9-0.1-1.4-0.1h-1h-6.8V79
	h-2.7L271.6,69.7z"/>
</svg>
