<?xml version="1.0" encoding="utf-8"?>
<!-- Generator: Adobe Illustrator 24.2.1, SVG Export Plug-In . SVG Version: 6.00 Build 0)  -->
<svg version="1.1" id="Layer_1" xmlns="http://www.w3.org/2000/svg" xmlns:xlink="http://www.w3.org/1999/xlink" x="0px" y="0px"
	 viewBox="0 0 185.6 31.9" style="enable-background:new 0 0 185.6 31.9;" xml:space="preserve">
<style type="text/css">
	.st0{fill:#182939;}
</style>
<polyline class="st0" points="0,0.3 7.6,0.3 7.6,2.5 2.7,2.5 2.7,5.7 7.3,5.7 7.3,8 2.7,8 2.7,13.8 0,13.8 0,0.3 "/>
<path class="st0" d="M12,2.3h1.3c0.9-0.1,1.8,0.5,1.9,1.4c0,0.1,0,0.3,0,0.4c0.1,1-0.5,1.9-1.5,2c-0.2,0-0.4,0-0.5,0H12L12,2.3z
	 M9.3,13.9H12V8.1h1.5c1.1,0,1.6,0.6,1.6,1.7l0.1,2.6c0,0.5,0.1,1,0.3,1.4h3v-0.1c-0.5-0.3-0.6-1-0.6-2.4c0-2.9-0.3-3.9-2.2-4.1l0,0
	C17.3,6.9,18,5.6,18,3.9c0-2.3-1.4-3.5-3.6-3.5H9.3L9.3,13.9"/>
<polyline class="st0" points="27.8,0.3 27.8,2.5 23,2.5 23,5.7 27.5,5.7 27.5,8 23,8 23,11.6 28,11.6 28,13.8 20.3,13.8 20.3,0.3 
	27.8,0.3 "/>
<path class="st0" d="M32.7,2.3h1.2c2.1,0,2.3,1.6,2.3,4.6c0,3.7-0.4,4.9-2.3,4.9h-1.2V2.3z M30,13.9h4.3c3.6,0,4.6-2.2,4.6-7
	c0-4-0.7-6.6-4.5-6.6H30V13.9"/>
<polyline class="st0" points="48.8,0.3 48.8,2.5 43.9,2.5 43.9,5.7 48.5,5.7 48.5,8 43.9,8 43.9,11.6 49,11.6 49,13.8 41.2,13.8 
	41.2,0.3 48.8,0.3 "/>
<path class="st0" d="M53.5,2.3h1.3c0.9-0.1,1.8,0.5,1.9,1.4c0,0.1,0,0.3,0,0.5c0.1,1-0.6,1.9-1.5,2c-0.2,0-0.3,0-0.5,0h-1.1
	L53.5,2.3z M50.8,13.9h2.7V8.1H55c1.1,0,1.6,0.6,1.6,1.7l0.1,2.6c0,0.5,0.1,1,0.4,1.4h3v-0.1c-0.5-0.3-0.6-1-0.6-2.4
	c0-2.9-0.3-3.9-2.2-4.1l0,0c1.5-0.3,2.3-1.5,2.3-3.3c0-2.3-1.4-3.5-3.6-3.5h-5L50.8,13.9"/>
<rect x="62" y="0.3" class="st0" width="2.7" height="13.5"/>
<path class="st0" d="M80.8,0.3v9.4c0,1.4,0.3,2.4,1.6,2.4s1.6-1,1.6-2.4V0.3h2.7v9.4c0,3.5-2.1,4.4-4.3,4.4S78,13.4,78,9.8V0.3H80.8
	"/>
<polyline class="st0" points="96.4,0.3 96.4,2.5 91.6,2.5 91.6,5.7 96.2,5.7 96.2,8 91.6,8 91.6,11.6 96.6,11.6 96.6,13.8 
	88.9,13.8 88.9,0.3 96.4,0.3 "/>
<path class="st0" d="M109.3,4.9c0-2-0.4-2.8-1.6-2.8s-1.7,1.4-1.7,5.2c0,4.1,0.6,4.8,1.8,4.8c1,0,1.7-0.5,1.7-3.4h2.7
	c0,2.9-0.7,5.4-4.3,5.4c-4.1,0-4.6-2.9-4.6-7s0.5-7,4.6-7c3.9,0,4.2,2.9,4.2,4.8L109.3,4.9"/>
<path class="st0" d="M116.6,7.1c0-3.6,0.3-5,1.9-5s1.9,1.4,1.9,5s-0.3,5-1.9,5S116.6,10.7,116.6,7.1z M113.9,7.1c0,4.1,0.5,7,4.6,7
	s4.6-2.9,4.6-7s-0.5-7-4.6-7S113.9,3,113.9,7.1"/>
<polyline class="st0" points="128.3,0.3 131.6,9.6 131.6,9.6 131.6,0.3 134.1,0.3 134.1,13.8 131,13.8 127.7,4.4 127.7,4.4 
	127.7,13.8 125.2,13.8 125.2,0.3 128.3,0.3 "/>
<path class="st0" d="M138.7,9.6V10c0,1.3,0.4,2.1,1.8,2.1c0.9,0,1.6-0.6,1.6-1.5c0-0.1,0-0.1,0-0.2c0-1.2-0.6-1.7-2.4-2.3
	c-2.4-0.8-3.5-1.8-3.5-4.1c0-2.6,1.6-4,4.2-4s4.2,1,4.2,3.6V4h-2.6c0-1.3-0.4-2-1.5-2c-0.8-0.1-1.5,0.5-1.6,1.2c0,0.1,0,0.2,0,0.3
	c0,0.8,0.3,1.4,1.4,1.8l2.1,0.9c2,0.9,2.6,1.9,2.6,3.6c0,2.9-1.8,4.1-4.7,4.1s-4.3-1.4-4.3-3.9V9.6L138.7,9.6"/>
<polyline class="st0" points="154.8,0.3 154.8,2.5 151.8,2.5 151.8,13.8 149.1,13.8 149.1,2.5 146.1,2.5 146.1,0.3 154.8,0.3 "/>
<path class="st0" d="M159.7,2.6L159.7,2.6l1.3,6.1h-2.7L159.7,2.6z M154.4,13.8h2.8l0.6-2.9h3.6l0.6,2.9h2.8l-3.6-13.5H158
	L154.4,13.8"/>
<polyline class="st0" points="169.5,0.3 172.8,9.6 172.9,9.6 172.9,0.3 175.4,0.3 175.4,13.8 172.3,13.8 168.9,4.4 168.9,4.4 
	168.9,13.8 166.4,13.8 166.4,0.3 169.5,0.3 "/>
<polyline class="st0" points="185.6,0.3 185.6,2.5 182.7,2.5 182.7,13.8 180,13.8 180,2.5 177,2.5 177,0.3 185.6,0.3 "/>
<path class="st0" d="M73.6,24.1c0-0.8-0.4-1.8-1.2-1.8c-1,0-1.5,1.1-1.5,3.8s0.2,4.2,1.5,4.2c0.8-0.1,1.4-0.9,1.3-1.7v-1.1h-1.4
	v-1.6h3.5v5.8h-1.6v-1l0,0c-0.5,0.8-1.3,1.3-2.3,1.2c-2.7,0-3.2-2-3.2-5.7s0.8-5.4,3.6-5.4c2.4,0,3.3,1.2,3.3,3.4L73.6,24.1"/>
<polyline class="st0" points="83.8,20.9 83.8,22.7 80,22.7 80,25.2 83.6,25.2 83.6,27 80,27 80,29.9 83.9,29.9 83.9,31.7 77.8,31.7 
	77.8,20.9 83.8,20.9 "/>
<polyline class="st0" points="88.1,20.9 90.8,28.3 90.8,28.3 90.8,20.9 92.8,20.9 92.8,31.7 90.3,31.7 87.7,24.2 87.6,24.2 
	87.6,31.7 85.7,31.7 85.7,20.9 88.1,20.9 "/>
<polyline class="st0" points="100.9,20.9 100.9,22.7 97.1,22.7 97.1,25.2 100.7,25.2 100.7,27 97.1,27 97.1,29.9 101,29.9 101,31.7 
	94.9,31.7 94.9,20.9 100.9,20.9 "/>
<polyline class="st0" points="104.3,20.9 105.9,28.9 105.9,28.9 107.5,20.9 109.7,20.9 107.3,31.7 104.5,31.7 102,20.9 104.3,20.9 
	"/>
<polyline class="st0" points="117.2,20.9 117.2,22.7 113.3,22.7 113.3,25.2 116.9,25.2 116.9,27 113.3,27 113.3,29.9 117.3,29.9 
	117.3,31.7 111.2,31.7 111.2,20.9 117.2,20.9 "/>
<path class="st0" d="M75.1,12.6L75.1,12.6c0.9-1.3,1-3.2,1-5.5c0-4.1-0.5-7-4.6-7s-4.6,2.9-4.6,7s0.5,7,4.6,7c0.3,0,0.7,0,1,0
	c0.3,0,0.6-0.1,0.8-0.2l0,0l1.6,1.7l1.6-1.4L75.1,12.6z M71.5,12.1c-1.6,0-1.9-1.4-1.9-5s0.3-5,1.9-5s1.9,1.4,1.9,5
	c0,1.1,0,2.3-0.2,3.4L73,10.3l-1.6,1.5l0.3,0.4L71.5,12.1"/>
</svg>
