<?xml version="1.0" encoding="utf-8"?>
<!-- Generator: Adobe Illustrator 24.2.1, SVG Export Plug-In . SVG Version: 6.00 Build 0)  -->
<svg version="1.1" id="Layer_1" xmlns="http://www.w3.org/2000/svg" xmlns:xlink="http://www.w3.org/1999/xlink" x="0px" y="0px"
	 viewBox="0 0 2549 218" style="enable-background:new 0 0 2549 218;" xml:space="preserve">
<style type="text/css">
	.st0{fill-rule:evenodd;clip-rule:evenodd;fill:#182939;}
</style>
<path class="st0" d="M2080,0v33.6c-52.7,0-101.7,12.4-101.7,75.9c0,62.6,48.5,75.9,101.7,76.3V218c-76,0-136-23.5-136-109
	C1944,23.5,2004.4,0,2080,0z"/>
<path class="st0" d="M2080,0c73.7,0,136,24.3,136,108.8c0,85.4-65.9,109.2-136,108.8v-32.1c51.3,0,101.7-13.3,101.7-76.2
	c0-63.3-51.7-75.7-101.7-75.7V0z"/>
<path class="st0" d="M1242,10h37v207h-37V10"/>
<path class="st0" d="M1392,10h38v174.1h166V218h-204V10z"/>
<path class="st0" d="M1598,10h287v32.5h-123.3V218h-38.1V42.5H1598V10z"/>
<path class="st0" d="M2428,8c121,0,121,61.4,121,97.2V218h-38.1v-96.3c-0.9-36.2,10.6-79.8-84.4-79.8c-94.9,0-82.1,43.6-83,79.8V218
	H2306V105.2C2306,69.9,2306.9,8,2428,8z"/>
<path class="st0" d="M512,8v33.5l-17.9,0.4c-84.6,4.1-77.8,37.8-77.3,68.4H512V146h-94.8v72h-38.4V105.2c0-33.1-2.8-89.6,109.4-96.5
	L512,8z"/>
<path class="st0" d="M512.2,8c137.8,0,134.1,61.4,135,97.2V218h-38.7v-72H512v-35.8h96.1c0.5-33.5,8.3-68.8-95.8-68.8l-0.2,0V8
	L512.2,8z"/>
<path class="st0" d="M855.3,4c44.1,0,76.2,7.8,88.6,27.5C956.8,11.3,989.4,4,1033.1,4c101.9,0,96.9,49.5,97.3,99.9V218l-40-0.5V119
	c-1.8-43.5,11-79.7-56.5-79.7c-73,0-70.3,13.7-70.3,79.7v99h-39v-98.5c0-66,3.2-79.7-70.3-79.7c-67.5,0-55.1,36.2-56.5,79.7V218h-40
	V103.9C758.5,53.5,758,4,855.3,4z"/>
<path class="st0" d="M0,8h38.5v80.4h190.1V8H267v209h-38.5v-90.5H38.5V217H0V8z"/>
</svg>
