<?xml version="1.0" encoding="utf-8"?>
<!-- Generator: Adobe Illustrator 24.2.1, SVG Export Plug-In . SVG Version: 6.00 Build 0)  -->
<svg version="1.1" id="Vrstva_1" xmlns="http://www.w3.org/2000/svg" xmlns:xlink="http://www.w3.org/1999/xlink" x="0px" y="0px"
	 viewBox="0 0 198.4 43.1" style="enable-background:new 0 0 198.4 43.1;" xml:space="preserve">
<style type="text/css">
	.st0{fill:#182939;}
</style>
<rect x="72.7" y="0.7" class="st0" width="5.4" height="27.1"/>
<path class="st0" d="M85.8,27.8h5.5V16.9h5.3c3.4,0.3,4.1,3.3,4.2,5.5c0,1.6,0.2,3.1,0.4,4.6c0.1,0.3,0.4,0.8,0.8,0.8h4.5l-0.2-0.7
	c-0.2-0.6-0.3-1.7-0.5-5.7c-0.3-6.5-3.5-6.2-4.6-6.6c1.6-0.6,5-1.8,5.4-6c0.3-4.1-2.7-7.8-6.9-8.1c-0.3,0-0.7,0-1,0h-13L85.8,27.8z
	 M91.2,12.8V5.2h6.5c2.1,0,3.7,1.7,3.8,3.8c-0.1,2.2-2,3.9-4.2,3.8H91.2z"/>
<path class="st0" d="M115.9,19.4c0,1.6,0.7,4.7,5.6,4.7c2.6,0,5.8-0.8,5.8-3.7c0-2.1-1.9-2.8-4.7-3.5l-2.9-0.7
	c-4.3-1-8.4-2.6-8.4-7.8c0-3,1.7-8.3,10.5-8.3c8.2,0,10.3,5.4,10.4,8.4H127c-0.1-0.9-0.5-4-5.4-4c-2.1,0-4.8,0.9-4.8,3.3
	c0,2.1,1.8,2.8,3,3.1l6.5,1.6c3.7,0.9,6.5,2.4,6.5,7.3c0,7.7-8.3,8.6-10.7,8.6c-9.8,0-11.3-5.5-11.3-8.9L115.9,19.4z"/>
<path class="st0" d="M155.3,9.1c-0.5-1.2-1.2-4.7-6-4.7c-2.8,0-7.3,2.3-7.3,9.9c0,4.8,2.4,9.7,7.3,9.7c3.1,0.2,5.8-2,6.1-5h5.4
	c-0.3,4.6-4.7,9.4-11.7,9.4c-7.4,0-12.7-4.8-12.7-14.2S142.2,0,149.3,0c8.3,0,11,5.8,11.3,9.1L155.3,9.1z"/>
<polygon class="st0" points="49,15.9 49,27.8 43.8,27.8 43.8,0.7 49,0.7 49,11.2 59.8,11.2 59.8,0.7 65,0.7 65,27.8 59.8,27.8 
	59.8,15.9 "/>
<polygon class="st0" points="170.2,15.9 170.2,27.8 165,27.8 165,0.7 170.2,0.7 170.2,11.2 181,11.2 181,0.7 186.2,0.7 186.2,27.8 
	181,27.8 181,15.9 "/>
<rect y="0.7" class="st0" width="8.5" height="41.9"/>
<rect x="24.9" y="0.7" class="st0" width="8.6" height="41.9"/>
<path class="st0" d="M23.7,21c-0.1,3.8-3.3,6.9-7.1,6.8c-3.8-0.1-6.9-3.3-6.8-7.1c0.1-3.8,3.2-6.8,7-6.8C20.6,14,23.7,17.1,23.7,21
	C23.7,21,23.7,21,23.7,21"/>
<path class="st0" d="M193.6,3.9h0.8c0.6,0,1.2,0,1.2-0.8s-0.5-0.7-1-0.7h-1L193.6,3.9z M192.9,1.9h1.8c1.1,0,1.6,0.4,1.6,1.3
	c0,0.7-0.5,1.2-1.1,1.3c0,0-0.1,0-0.1,0l1.3,2h-0.8l-1.3-2h-0.8v2h-0.7V1.9z M194.5,7.6c1.9,0.1,3.4-1.4,3.5-3.3
	c0.1-1.9-1.4-3.4-3.3-3.5c-1.9-0.1-3.4,1.4-3.5,3.3c0,0,0,0.1,0,0.1c-0.1,1.8,1.3,3.3,3.1,3.4C194.4,7.6,194.4,7.6,194.5,7.6
	 M194.5,0.3c2.2,0,4,1.8,4,4s-1.8,4-4,4s-4-1.8-4-4c0,0,0,0,0-0.1C190.5,2.1,192.2,0.3,194.5,0.3C194.4,0.3,194.4,0.3,194.5,0.3"/>
<polygon class="st0" points="43.5,35.3 49.5,35.3 49.5,36.2 47,36.2 47,42.7 46,42.7 46,36.2 43.5,36.2 "/>
<path class="st0" d="M56.2,42.7h-0.9v-3.5c0-0.7-0.2-1.2-1.1-1.2s-1.5,0.4-1.5,1.8v2.9h-0.9v-7.4h0.9V38l0,0
	c0.3-0.5,0.9-0.9,1.6-0.9c0.9-0.1,1.8,0.6,1.9,1.5c0,0.1,0,0.2,0,0.4L56.2,42.7z"/>
<path class="st0" d="M62.7,41c-0.1,0.6-0.7,1.1-1.4,1.1c-1,0-1.6-0.6-1.6-1.8h3.9c0-1.9-0.8-3.1-2.3-3.1c-1.8,0-2.6,1.3-2.6,3
	c-0.2,1.3,0.8,2.5,2.1,2.7c0.1,0,0.2,0,0.3,0c0.5,0,1-0.1,1.5-0.4c0.5-0.3,0.8-0.9,1-1.5L62.7,41z M59.7,39.6c0-0.9,0.6-1.6,1.5-1.6
	c1.1,0,1.5,0.8,1.5,1.6H59.7z"/>
<path class="st0" d="M71.5,42.7V42l0,0c0.3,0.5,0.9,0.8,1.5,0.8c1.8,0,2.4-1.7,2.4-3c0-1.5-0.8-2.7-2.3-2.7c-0.6,0-1.2,0.3-1.5,0.8
	l0,0v-2.7h-1v7.4H71.5z M74.4,40c0,1.2-0.5,2.1-1.5,2.1c-0.6,0-1.5-0.4-1.5-1.8c0-0.9,0.1-2.3,1.5-2.3S74.4,39.3,74.4,40"/>
<path class="st0" d="M79,42.7h-0.9v-5.4h0.9v0.9l0,0c0.3-0.6,0.9-1,1.5-1c0.1,0,0.2,0,0.2,0v0.9h-0.3c-0.8,0-1.4,0.6-1.4,1.4
	c0,0,0,0.1,0,0.1L79,42.7z"/>
<path class="st0" d="M83.6,38.9c0-0.6,0.6-1,1.1-1c0,0,0.1,0,0.1,0c0.9,0,1.3,0.3,1.3,0.9s-0.3,0.6-0.5,0.6l-1.5,0.2
	c-0.9,0-1.6,0.7-1.6,1.6c0,0,0,0.1,0,0.1c0,0.9,0.8,1.5,1.6,1.5c0,0,0.1,0,0.1,0c0.7,0,1.5-0.3,1.9-0.9c0,0.4,0.2,0.8,1,0.8
	c0.2,0,0.3,0,0.5-0.1V42c-0.1,0-0.2,0-0.3,0c-0.2,0-0.3-0.1-0.3-0.3v-3.1c0-1.4-1.6-1.5-2-1.5c-1.3,0-2.2,0.5-2.2,1.8L83.6,38.9z
	 M86.1,40.8c0,0.7-0.8,1.3-1.7,1.3c-0.5,0.1-0.9-0.2-1-0.7c0-0.1,0-0.2,0-0.3c0-0.7,0.7-0.8,1.1-0.9c1.1-0.1,1.4-0.2,1.5-0.3
	L86.1,40.8z"/>
<path class="st0" d="M93.4,39.1c0-0.7-0.6-1.2-1.2-1.2c0,0,0,0-0.1,0c-1.1,0-1.5,1.1-1.5,2s0.2,2.1,1.5,2.1c0.7,0,1.2-0.6,1.3-1.3
	h0.9c0,1.2-1,2.1-2.2,2.1c0,0,0,0,0,0c-1.3,0-2.4-1.1-2.4-2.4c0-0.1,0-0.2,0-0.3c0-1.7,0.8-3,2.6-3c1.1,0,2,0.9,2,2H93.4z"/>
<path class="st0" d="M100.4,41c-0.1,0.6-0.7,1.1-1.4,1.1c-1,0-1.6-0.6-1.6-1.8h3.9c0-1.9-0.8-3.1-2.3-3.1c-1.8,0-2.6,1.3-2.6,3
	c-0.2,1.3,0.8,2.5,2.1,2.7c0.1,0,0.2,0,0.3,0c0.5,0,1-0.1,1.5-0.4c0.5-0.3,0.8-0.9,1-1.5L100.4,41z M97.4,39.6
	c0-0.9,0.6-1.6,1.5-1.6c1.1,0,1.5,0.8,1.5,1.6H97.4z"/>
<rect x="104" y="35.3" class="st0" width="0.9" height="7.4"/>
<path class="st0" d="M111.4,41c-0.1,0.6-0.7,1.1-1.4,1.1c-1,0-1.6-0.6-1.6-1.8h3.9c0-1.9-0.8-3.1-2.3-3.1c-1.8,0-2.6,1.3-2.6,3
	c-0.2,1.3,0.8,2.5,2.1,2.7c0.1,0,0.2,0,0.3,0c0.5,0,1-0.1,1.5-0.4c0.5-0.3,0.9-0.9,1-1.5L111.4,41z M108.5,39.6
	c0-0.9,0.6-1.6,1.5-1.6c1.1,0,1.5,0.8,1.5,1.6H108.5z"/>
<path class="st0" d="M116.1,38v3.5c0,0.4,0.4,0.4,0.5,0.4h0.3v0.7l-0.7,0.1c-0.9,0-1.1-0.5-1.1-1.2V38h-0.7v-0.8h0.7v-1.5h0.9v1.5
	h0.9V38H116.1z"/>
<path class="st0" d="M126.8,38.8c0-0.3-0.1-0.9-1.3-0.9c-0.3,0-1.1,0.1-1.1,0.8c0,0.4,0.3,0.5,1,0.7l0.9,0.2
	c1.1,0.3,1.5,0.7,1.5,1.4c0,1.1-0.9,1.8-2.1,1.8c-2.1,0-2.3-1.2-2.3-1.9h0.9c0,0.4,0.1,1.1,1.4,1.1c0.6,0,1.2-0.3,1.2-0.9
	c0-0.4-0.3-0.6-1.1-0.8l-1-0.3c-0.8-0.2-1.2-0.6-1.2-1.3c0-1.2,1-1.7,2-1.7c1.9,0,2.1,1.4,2.1,1.7L126.8,38.8z"/>
<path class="st0" d="M130.5,42.7h0.9v-5.4h-0.9V42.7z M130.5,36.3h0.9v-1h-0.9V36.3z"/>
<path class="st0" d="M138.6,42.7h-0.9v-3.3c0-0.9-0.3-1.4-1.1-1.4c-0.5,0-1.4,0.3-1.4,1.8v2.9h-0.9v-5.4h0.9V38l0,0
	c0.3-0.6,1-0.9,1.6-0.9c0.9-0.1,1.8,0.6,1.9,1.5c0,0.1,0,0.3,0,0.4L138.6,42.7z"/>
<path class="st0" d="M144.9,39.1c0-0.7-0.6-1.2-1.2-1.2c0,0,0,0,0,0c-1.1,0-1.5,1.1-1.5,2s0.2,2.1,1.5,2.1c0.7,0,1.2-0.6,1.3-1.3
	h0.9c0,1.2-1,2.1-2.2,2c-1.3,0-2.4-1.1-2.4-2.4c0-0.1,0-0.2,0-0.3c0-1.7,0.8-3,2.6-3c1.1,0,2,0.8,2,1.9c0,0,0,0.1,0,0.1L144.9,39.1z
	"/>
<path class="st0" d="M151.8,41c-0.1,0.6-0.7,1.1-1.4,1.1c-1,0-1.6-0.6-1.6-1.8h3.9c0-1.9-0.8-3.1-2.3-3.1c-1.8,0-2.6,1.3-2.6,3
	c-0.2,1.3,0.8,2.5,2.1,2.7c0.1,0,0.2,0,0.3,0c0.5,0,1-0.1,1.5-0.4c0.5-0.3,0.9-0.9,1-1.5L151.8,41z M148.9,39.6
	c0-0.9,0.6-1.6,1.5-1.6c1.1,0,1.5,0.8,1.5,1.6H148.9z"/>
<path class="st0" d="M162.8,42.7h-1v-5.1h-1.7v-0.8c1.2-0.1,1.7-0.2,1.9-1.4h0.7L162.8,42.7z"/>
<path class="st0" d="M166.8,35.6h5v0.8c-1.6,1.8-2.6,4-3,6.3h-1c0.4-2.3,1.5-4.4,3-6.2h-4V35.6z"/>
<path class="st0" d="M178.8,37.4c0-1.1-1-2-2.1-1.9c0,0,0,0,0,0c-2.2,0-2.7,2.3-2.7,3.9c0,0.9,0.2,1.7,0.6,2.5c0.4,0.6,1.1,1,1.9,1
	c0.7,0.1,1.4-0.2,1.8-0.7c0.5-0.5,0.7-1.1,0.7-1.8c0.1-1.2-0.9-2.2-2.1-2.3c-0.1,0-0.1,0-0.2,0c-0.7,0-1.4,0.3-1.7,0.9l0,0
	c0-0.8,0.3-2.7,1.7-2.7c0.6,0,1.2,0.5,1.2,1.1L178.8,37.4z M175.1,40.4c-0.1-0.8,0.5-1.5,1.3-1.6c0.1,0,0.1,0,0.2,0
	c0.8,0,1.4,0.6,1.5,1.3c0,0.1,0,0.1,0,0.2c0.1,0.8-0.5,1.5-1.3,1.6c-0.1,0-0.1,0-0.2,0c-0.8,0-1.5-0.6-1.5-1.5
	C175.1,40.5,175.1,40.5,175.1,40.4"/>
<path class="st0" d="M182.4,38.5c0.4-0.3,0.9-0.5,1.4-0.5c1.3,0,2.3,1,2.4,2.2c0,0,0,0.1,0,0.1c0.1,1.3-0.9,2.5-2.3,2.5
	c-0.1,0-0.2,0-0.4,0c-1.2,0.1-2.2-0.7-2.3-1.9c0,0,0-0.1,0-0.1h0.9c0.1,0.7,0.7,1.3,1.5,1.2c0,0,0,0,0.1,0c0.9,0,1.5-0.7,1.5-1.6
	c0,0,0-0.1,0-0.1c0.1-0.8-0.5-1.6-1.4-1.6c-0.1,0-0.2,0-0.2,0c-0.5,0-1,0.3-1.3,0.7l-0.8,0l0.5-3.9h3.7v0.9h-3.1L182.4,38.5z"/>
</svg>
