<?xml version="1.0" encoding="utf-8"?>
<!-- Generator: Adobe Illustrator 24.2.1, SVG Export Plug-In . SVG Version: 6.00 Build 0)  -->
<svg version="1.1" id="Layer_1" xmlns="http://www.w3.org/2000/svg" xmlns:xlink="http://www.w3.org/1999/xlink" x="0px" y="0px"
	 viewBox="0 0 436.4 98.5" style="enable-background:new 0 0 436.4 98.5;" xml:space="preserve">
<style type="text/css">
	.st0{fill:#182939;}
</style>
<g id="Layer_2_1_">
	<g id="Layer_1-2">
		<path class="st0" d="M19,98.5c-9.3,0.4-17.4-6.7-19-15.9C0,82,0,81.5,0,81V17.5c0.2-3.8,1.6-7.4,4-10.2c2.8-3.6,6.8-6,11.2-6.9
			c0.7-0.1,1.4-0.2,2.1-0.3c0.4,0.1,0.9,0.2,1.4,0.2h398.7c0.5,0,1-0.1,1.5-0.2c7.4,0.8,12.7,4.5,15.9,11.2c1.1,2.1,1.6,4.5,1.6,6.9
			c0,21.1,0,42.1,0,63.2c-0.1,3.6-1.5,7.1-3.8,9.8c-2.7,3.5-6.5,6-10.8,6.9c-1.4,0.2-2.8,0.4-4.3,0.4H19z M7.9,18
			c-0.1,0.4-0.2,0.8-0.2,1.3c0,20,0,40,0,60c0,0.4,0.1,0.8,0.2,1.3c0.6,5.7,5.4,10,11.1,10.1c0.4,0.1,0.9,0.2,1.4,0.2h395.3
			c0.5,0,1-0.1,1.5-0.2c6.2,0,11.3-5,11.3-11.2c0-0.1,0-0.3,0-0.4c0-19.6,0-39.2,0-58.9c0-1.1-0.1-2.1-0.3-3.2
			c-0.8-4.6-5.3-8.7-9.8-8.8c-0.5-0.1-0.9-0.2-1.4-0.2H19.2c-0.5,0-1,0.1-1.5,0.2c-0.3,0-0.6,0.1-0.9,0.1C11.7,9.5,8.8,12.8,7.9,18z
			"/>
		<path class="st0" d="M212.5,60.3c0-10.2,0-20.4,0-30.7c0-1.9,0.5-3.6,2.2-4.6c2.5-1.5,6.5-0.8,7.2,3.2c0.1,0.9,0.2,1.7,0.2,2.6
			c0,13.6,0,27.1,0,40.7c0,3.2-1.6,5.6-4.2,6c-3.1,0.7-6.2-0.7-7.8-3.4c-6-9-12-18.1-18-27.2c-1.1-1.6-2.1-3.3-3.4-4.9v1.1
			c0,9.7,0,19.4,0,29.1c0,4.2-3.4,6.2-6.8,5c-1.7-0.7-2.9-2.4-2.9-4.3c0-3.3,0-6.7,0-10.1c0-10.9,0-21.8,0-32.7
			c0.1-3.4,2.9-6,6.3-5.8c1.8,0.1,3.5,0.9,4.6,2.3c4.4,6.6,8.8,13.2,13.2,19.8c3.1,4.6,6.2,9.3,9.3,13.9l0.1,0.3L212.5,60.3z"/>
		<path class="st0" d="M378.3,72.1c-0.2,1.9-0.6,3.7-2.4,4.8c-2.4,1.6-5.6,1-7.2-1.4c-0.6-0.9-0.9-2.1-0.9-3.2c0-6.1,0-12.1,0-18.2
			c-0.4-0.1-0.7-0.2-1.1-0.2c-6.7,0-13.4,0-20.1,0c-0.4,0-0.8,0.1-1.1,0.2c-0.1,0.4-0.2,0.9-0.2,1.4c0,5.7,0,11.4,0,17.1
			c0,2.3-1.5,4.3-3.7,4.9c-2.6,0.6-4.8,0-6-2.4c-0.5-1-0.8-2.2-0.8-3.3c-0.1-13.9-0.1-27.7,0-41.6c0-2.9,1.3-5,3.7-5.7
			c2.7-0.9,5.7,0.6,6.6,3.3c0.2,0.5,0.3,1.1,0.3,1.6c0,4.8,0,9.7,0,14.5v1.4h22.5v-1.3c0-4.8,0-9.5,0-14.3c-0.2-2.2,1.1-4.2,3-5
			c2.8-1.1,6.2-0.2,7.2,3.4c0.1,0.6,0.2,1.2,0.3,1.8c-0.1,0.4-0.2,0.8-0.2,1.3c0,13.2,0,26.4,0,39.6
			C378.1,71.3,378.2,71.7,378.3,72.1z"/>
		<path class="st0" d="M251.8,24.3c4.6,0,9.1,0.9,13,3.5c2.8,1.7,4.8,4.4,5.5,7.5c0.5,1.7,0.1,3.6-0.9,5c-1.5,2-4.4,2.3-6.3,0.8
			c-0.5-0.4-0.9-0.9-1.2-1.5c-0.7-1.2-1.4-2.4-2.1-3.6c-1.2-2.2-3.4-3.6-5.9-3.7c-2.4-0.1-4.9-0.4-7.2,0.7c-1.1,0.5-2,1.1-2.9,1.9
			c-2.1,2.2-1.6,5.3,1,7.2c2.4,1.6,5.2,2.2,7.9,2.9c4.3,1.1,8.6,2,12.6,4.1c4.3,2.2,7,5.5,7.5,10.6c0.4,3.7-0.5,7.5-2.6,10.6
			c-2.5,3.5-6.3,6-10.5,6.8c-2.4,0.6-4.9,1-7.4,1c-5.8-0.1-11.4-1.2-15.8-5.4c-2.7-2.5-4.4-5.9-4.7-9.6c-0.1-2.6,1.9-4.8,4.5-4.8
			c1.9-0.1,3.7,1.1,4.5,2.8c0.7,1.3,1.2,2.7,1.9,4c1.4,2.9,4.2,4.8,7.4,5.1c3.3,0.6,6.7-0.2,9.6-2c2.9-1.9,3.7-5.8,1.8-8.7
			c-0.1-0.2-0.2-0.3-0.3-0.5c-1.5-1.9-3.8-2.6-6.1-3.3c-4.4-1.3-8.8-2.4-13.1-3.9c-4.1-1.5-7.3-4.2-8.5-8.6
			c-2.2-6.8,1.3-14.1,7.9-16.6c1.7-0.7,3.5-1.2,5.3-1.5C248.1,24.5,250,24.5,251.8,24.3z"/>
		<path class="st0" d="M84.5,76.9c-2.9,0.1-5.3-2.1-5.5-5c0-0.2,0-0.4,0-0.5c0.1-0.4,0.2-0.8,0.2-1.3c0-12.7,0-25.5,0-38.2
			c0-0.4-0.1-0.8-0.2-1.3c-0.2-2.8,1.9-5.1,4.7-5.3c0,0,0,0,0,0c1.1-0.1,2.3-0.2,3.4-0.2c8.4,0,16.9,0,25.3,0c0.9,0,1.7,0.1,2.6,0.3
			c1.8,0.5,3.1,2.2,3,4.1c-0.1,2.1-1.9,3.8-4,3.7c-7.6,0-15.3,0-22.9,0h-1.6V46h22c2.2-0.2,4.1,1.5,4.3,3.7c0,0,0,0,0,0
			c0.1,2.3-1.7,4.2-3.9,4.3c-0.1,0-0.2,0-0.3,0c-6.9-0.1-13.8,0-20.6,0h-1.4v14.6h1.3c7.7,0,15.3,0.1,23,0c3.2,0,4.7,1.7,4.8,3.6
			c0.2,2.9-1.2,4.4-4.3,4.8c-0.4-0.1-0.7-0.2-1.1-0.2H85.6C85.2,76.7,84.9,76.8,84.5,76.9z"/>
		<path class="st0" d="M136.5,64.7c-1.4,3.5-2.6,7-4.1,10.4c-1.1,2.5-3,2.9-5.4,2.4c-2.2-0.5-3.7-2.4-3.8-4.7
			c0.1-2.3,1.1-4.3,1.9-6.3c4.6-11.8,9.3-23.7,14-35.5c0.9-2.3,1.9-4.5,4.1-5.7c3.6-2.1,8.2-0.9,10.3,2.6c0.2,0.3,0.3,0.6,0.5,0.9
			c1.4,3.1,2.6,6.2,3.9,9.4c4,10,8.1,19.9,12.1,29.9c0.6,1.6,1,3.2,1.1,4.9c0.2,2-1.4,3.8-3.5,4.4s-4.4,0.1-5.3-1.7
			c-1.3-2.7-2.6-5.4-3.6-8.2c-1.2-3.1-1.1-3.2-4.4-3.2h-17.4L136.5,64.7z M139.5,56.4h15c-2.5-6.9-5-13.6-7.6-20.7L139.5,56.4z"/>
		<path class="st0" d="M279.5,51.2c-0.3-6.1,1.4-12.1,4.9-17.2c3.4-4.8,8.5-8.1,14.2-9.1c5.4-1.2,11.1-0.6,16.1,1.7
			c5.1,2.4,9.1,6,10.5,11.8c0.6,2.1-0.2,4.3-1.9,5.5c-1.9,1.4-4.6,0.9-6-1c-1.1-1.6-2.1-3.3-3.1-4.9c-4.3-6.6-13.9-6.6-19-1.7
			c-2.6,2.7-4.2,6.2-4.6,9.9c-0.3,2-0.5,4-0.5,6c0.2,4.1,0.7,8.1,3,11.6c2.2,3.4,6,5.5,10.1,5.4c3.9,0.2,7.4-0.8,10-3.9
			c1.2-1.6,2.2-3.4,3-5.2c0.3-0.5,0.5-1,0.7-1.5c1.2-2.9,3.2-3,5.6-2.4c1.8,0.5,3.3,2.2,3,5.4c-0.8,8.2-8.9,15-16.9,15.9
			c-4.4,0.6-8.8,0.3-13.1-0.9c-5.8-1.7-9.8-5.5-12.6-10.7C280.4,61.3,279.3,56.3,279.5,51.2z"/>
		<path class="st0" d="M40.8,76.9c-3.4-0.1-5.5-2.2-5.5-5.5c0-13.8,0-27.6,0-41.4c0-2.3,0.8-4.2,3.1-5.1c2.6-1.2,5.6-0.1,6.8,2.4
			c0.1,0.3,0.3,0.6,0.4,1c0.1,0.6,0.2,1.2,0.3,1.8c-0.1,0.4-0.2,0.8-0.2,1.3c0,11.9,0,23.9,0,35.8c0,0.4,0.1,0.8,0.2,1.2
			c7.2,0,14.5,0,21.7,0c1.7-0.1,3.3,0.7,4.1,2.2c0.9,1.4,0.8,3.2-0.2,4.5c-0.9,1.3-2.3,1.7-3.8,1.9c-0.4-0.1-0.8-0.2-1.1-0.2H42
			C41.6,76.7,41.2,76.8,40.8,76.9z"/>
		<path class="st0" d="M400.4,72.3c-0.3,1.3-0.8,2.5-1.4,3.6c-1.2,1.8-3.9,2.2-5.7,1.5c-2.2-0.8-3.6-3-3.5-5.3c0-14,0-28.1,0-42.2
			c0-1,0.3-2,0.7-2.9c1-2.1,3.4-3.2,5.6-2.6c2.1,0.4,3.7,2,4,4.1c0.1,0.4,0.1,0.8,0.2,1.2c-0.1,0.4-0.2,0.8-0.2,1.3
			c0,13.4,0,26.7,0,40.1C400.2,71.5,400.2,71.9,400.4,72.3z"/>
	</g>
</g>
</svg>
