<?xml version="1.0" encoding="utf-8"?>
<!-- Generator: Adobe Illustrator 24.2.1, SVG Export Plug-In . SVG Version: 6.00 Build 0)  -->
<svg version="1.1" id="Layer_1" xmlns="http://www.w3.org/2000/svg" xmlns:xlink="http://www.w3.org/1999/xlink" x="0px" y="0px"
	 viewBox="0 0 325.5 78.8" style="enable-background:new 0 0 325.5 78.8;" xml:space="preserve">
<style type="text/css">
	.st0{fill:#FFFFFF;}
</style>
<path class="st0" d="M30.1,32.9c-1.3,3.7-6.9,3.1-15.7,3.1c0,0,0-25.9,0-26.7c-0.1-0.8,0.1-1.5,0.5-2.2c0.8-1.1,3.2-1,6-1V1.3H0v4.9
	c0.8,0,4.9-0.4,5.5,1.2c0.2,0.7,0.3,1.4,0.3,2.1c0,0.9,0,23.4,0,23.4c0.1,0.8,0,1.5-0.2,2.3c-0.4,0.7-0.9,1.2-5.6,1.2
	c0,2,0,4.7,0,4.7h35.5V23.9h-4.2C31.1,26.9,30.9,30.7,30.1,32.9"/>
<path class="st0" d="M321.3,4.9h-0.8V3.3h1.1c0.6,0,1.1,0.1,1.1,0.8C322.7,4.9,322,4.9,321.3,4.9z M323.3,4c0-0.9-0.5-1.3-1.5-1.3
	h-1.8v4.8h0.6V5.4h1l1.3,2.1h0.7l-1.4-2.1C322.8,5.3,323.3,4.7,323.3,4"/>
<path class="st0" d="M321.4,8.6c-1.9,0-3.6-1.5-3.6-3.5s1.5-3.6,3.5-3.6c1.9,0,3.6,1.5,3.6,3.5c0,0,0,0,0,0.1c0,1.9-1.4,3.5-3.3,3.5
	C321.5,8.6,321.5,8.6,321.4,8.6z M321.4,1c-2.3,0-4.1,1.8-4.1,4.1c0,2.3,1.8,4.1,4.1,4.1s4.1-1.8,4.1-4.1c0,0,0,0,0,0
	c0-2.2-1.8-4.1-4-4.1C321.5,1,321.5,1,321.4,1"/>
<path class="st0" d="M175.5,8v25.7c0,2.7-2.9,2.2-5.6,2.3v4.8h20.2V36c-3.9,0-5.6,0.3-5.6-2.3V7.9c0-2.2,2-1.8,5.6-1.8V1.3h-20.2
	v4.9C172.9,6.2,175.5,5.8,175.5,8"/>
<path class="st0" d="M300.1,16.8c-10.1-2.1-10.4-4.3-10.7-5.5c-0.3-1.2,0-2.6,0.7-3.6c0.9-1.4,3-2.5,6.4-2.5c9.7,0,11.9,6.7,13,11.3
	h4.2V1.3h-3.5l-2,2.9c-3.3-2.6-7.4-3.9-11.7-3.9c-5.6,0-14.3,2.5-14.3,12.3c0,10.3,11.1,11.7,15.8,12.6c6.4,1.3,9.2,2.5,10.3,4.4
	c1.2,2,0.2,4.8-1.4,6c-1.6,1.2-6.1,2.3-11.9,0.6c-5.3-1.5-7.3-7-8.3-11.3h-4v16h3.1l2.2-3.1c0.6,1,5.9,4.5,13.1,4.5
	s15.1-3.2,15.1-12.5C316.1,18.9,303.5,17.5,300.1,16.8"/>
<path class="st0" d="M220,6.1h3.7c2.7,0,2.6,1.2,2.6,2.5c0,6.6,0,17.5,0,17.5L209,1.3h-16.1v5h3.4c2.3,0,2.5,1.2,2.5,3.2v23.3
	c0,4-1.1,3.4-5.9,3.4v4.8h19.5v-4.8c-5.5,0-6.9,0.6-6.9-3V11.7c6.6,9.8,19.8,29.1,19.8,29.1h7.5V8.4c0-0.9,0-2.3,1.7-2.3h4.3V1.3
	H220V6.1"/>
<path class="st0" d="M241.2,6.2c5.1,0,6.5-0.5,6.5,2.3v24.8c0,3.1-1.2,2.5-6.5,2.6v4.9h38V23.9h-4.5v4.8c0,5.7-4,7.2-7.7,7.1h-10.6
	V22.7c0,0,4.3-0.4,5.8,1c1.9,1.7,1.6,7.2,1.6,7.2h4.3V10.8h-4.3c0,0-0.1,5.1-1.7,6.4c-1.6,1.3-5.8,0.9-5.8,0.9V6.1H267
	c0.8,0,4.4-0.2,6,1.5s1.9,5.4,1.9,7.1s0,2.8,0,2.8h4.3V1.3h-38L241.2,6.2"/>
<path class="st0" d="M228,48.8l-2.6,2.2h-33.5l-1.8,2h20.3l-2.3,2.4h-26.4l-1.8,1.9h13.6l-2.4,2.4h-19.8l-1.9,2h7.5l-2,2.1h-8.3
	V51.5h-19.4l0,12.4H139l-2-2.1h7.3l-2.1-2h-19.6l-2.8-2.4h13.9l-2-1.9h-25.8l-2.6-2.4h20.8l-2.2-2H88.3l-2.7-2.2h52.6l4.3,7.3
	l4.8-7.3h19.7l4.6,7.5l5.4-7.4L228,48.8z M164.5,74.5l-6.2-9.4l6.2-9.2V74.5z M150.5,76.7l2.3-3.6h8.1l2.5,3.6H150.5z M155.5,65.1
	l-6,9.1V55.8L155.5,65.1z M153,57.1l-2.3-3.6h12.9l-2.5,3.6H153z M159.6,71h-5.2l2.6-4.2L159.6,71z M154.1,58.8h5.6l-2.7,4
	L154.1,58.8z M171.4,52.3l-3.3-5.4h-22.2l-3.5,5.4l-3-5.4H80.1l7.3,6.2h12.5l4.6,4.4h11.9l5.5,4.4h11.9l4.4,4.4h9.2v12.7h19.4V66.1
	h9.1l4.2-4.4h12.3l4.1-4.4h12.9l4-4.4h13l6.7-6.2h-57.3L171.4,52.3"/>
<path class="st0" d="M108,6.1h3.7c2.7,0,2.6,1.2,2.6,2.5c0,6.6,0,17.5,0,17.5L97.1,1.3H81v5h4.4c1.9,0.2,1.5,1.2,1.5,3.2v23.3
	c0,3.7-0.7,3.4-5.9,3.4v4.8h19.4v-4.8c-5.3,0-6.9,0.5-6.9-3V11.7c6.6,9.8,19.8,29.1,19.8,29.1h7.4V8.4c0-1-0.2-2.3,1.7-2.3h4.3V1.3
	H108L108,6.1"/>
<path class="st0" d="M72.3,21.2c0,6-1.2,12.8-7.3,15.2c-1.7,0.6-3.4,0.8-5.1,0.7c-1.8,0-3.5-0.3-5.2-0.9c-5.4-2.3-7-9-7.1-15
	c0-5.4,1.5-11.8,5.5-14.3c2.1-1.3,4.5-2,6.9-1.9c2.5-0.1,5,0.6,7.1,1.9C70.5,9.4,72.5,14.4,72.3,21.2z M79.3,10.2
	c-3.1-5-8.1-8.5-13.9-9.7C63.6,0.2,61.7,0,59.9,0c-5.9-0.1-11.6,2.1-16,6.1c-5.7,5.6-7.3,14.1-5,21.8C41,35,48.1,40.8,55.4,41.8
	c1.5,0.2,3,0.3,4.5,0.3c7.3,0,14.1-2.7,18.6-8.8C82.9,27,83.2,16.8,79.3,10.2"/>
<path class="st0" d="M135.7,39.8c2.9,1.6,6.3,2.4,9.6,2.4c4.6,0,9.1-1.4,12.9-4.1c0.8,0.9,1.5,2,2.2,2.9h4.7V27.1
	c0.1-3.6,1.4-2.8,5.2-2.9v-4.3h-20.4v4.3c5.3,0.2,6.4-0.7,6.5,2.9c0,7.6-4.9,9-6,9.5c-3.7,1.7-8.1,0.7-10.8-2.4
	c-5.1-6.1-4.9-20.1,0.1-26.1c2.7-3,6.7-3.6,10.8-2.2c4.7,1.5,7.3,6.4,8.5,10.7h4.8V1.3h-4.7l-1.6,3.1c-5.7-4.4-13.3-5.5-19.9-2.8
	c-7.3,2.8-11.2,10.5-11.5,17.8C125.7,27.7,128.2,35.6,135.7,39.8"/>
</svg>
