<?xml version="1.0" encoding="utf-8"?>
<!-- Generator: Adobe Illustrator 24.2.1, SVG Export Plug-In . SVG Version: 6.00 Build 0)  -->
<svg version="1.1" id="Layer_1" xmlns="http://www.w3.org/2000/svg" xmlns:xlink="http://www.w3.org/1999/xlink" x="0px" y="0px"
	 viewBox="0 0 2114 503" style="enable-background:new 0 0 2114 503;" xml:space="preserve">
<style type="text/css">
	.st0{fill-rule:evenodd;clip-rule:evenodd;fill:#182939;}
</style>
<g>
	<g>
		<path class="st0" d="M0,12h99.5l149,357.9L394.4,12H493v479h-72.5V118.9h-1.4L268.7,491h-44.5L68.8,118.9h-1.4V491H0V12z"/>
		<path class="st0" d="M699,12h68v479h-68V12"/>
		<path class="st0" d="M982,12h188.7l19.3,0.8V80l-10.5-2.4c-12.4-1.8-25.3-2.7-38.7-2.7h-86.3V425h71.6c13.7,0,27.1-0.8,40.1-2.6
			l23.8-4.9v71.7l-7.7,1c-7.2,0.6-14.4,0.9-21.7,0.9H982V12z"/>
		<path class="st0" d="M1190,13l4,0.2c114.1,9.1,202,86.3,202,238.4c0,143.2-92.3,219-192.2,235.7L1190,489v-71.7l13.5-2.8
			c71.1-20.8,121.2-73.6,121.2-163s-43.4-144-110-165.7l-24.7-5.7V13z"/>
		<path class="st0" d="M1768.3,0h0.7v65.6h-0.2c-104.7,0-174.6,80.7-174.6,182.5c0.4,109.1,69.9,189.4,174.6,189.4h0.2V503h-0.7
			c-147.2,0-252.3-100-252.3-249.4C1516,100.4,1621.1,0,1768.3,0z"/>
		<path class="st0" d="M1769,0l26.8,0.7C1930.4,9.9,2023,106.8,2023,250.8c0,140.2-92.6,236.8-227.2,250.6L1769,503v-65.5l19.2-0.9
			c94.8-9.3,156-86.6,156-188.5c0-95.4-61.2-172.3-156-181.6l-19.2-0.9V0z"/>
		<path class="st0" d="M2045,426h21v8.9l-2.7-0.3h-7.8v15.5h7.8l2.7-0.3v13.5l-2.7-4.5h-7.8V482H2045V426z"/>
		<path class="st0" d="M2064.2,405l1.8,0.2v8.8l-1.8-0.4c-22.3,0-40.5,18.1-40.5,40.4c0,22.2,18.2,40.4,40.5,40.4l1.8-0.4v8.8
			l-1.8,0.2c-27.3,0-49.2-21.8-49.2-49C2015,427.2,2036.8,405,2064.2,405z"/>
		<path class="st0" d="M2066,426h0.9c13.5,0,19.8,5.9,19.8,16.8c0.9,7.7-4.9,14.6-12.6,15.5h-0.5L2088,482h-10.8l-11.2-18.7v-13.5
			l6.2-0.8c2.5-1,4.2-3,4.2-6.6c0-3.9-1.7-5.8-4.2-6.8l-6.2-0.7V426z"/>
		<path class="st0" d="M2066,405l8.2,0.8c22.8,4.6,39.8,24.3,39.8,48.2s-17,43.6-39.8,48.2l-8.2,0.8v-8.8l14.1-2.8
			c14.7-6.2,25.1-20.6,25.1-37.3c0-16.7-10.4-31.2-25.1-37.3L2066,414V405z"/>
	</g>
</g>
</svg>
