<?xml version="1.0" encoding="utf-8"?>
<!-- Generator: Adobe Illustrator 24.2.1, SVG Export Plug-In . SVG Version: 6.00 Build 0)  -->
<svg version="1.1" id="Layer_1" xmlns="http://www.w3.org/2000/svg" xmlns:xlink="http://www.w3.org/1999/xlink" x="0px" y="0px"
	 viewBox="0 0 102.2 48.6" style="enable-background:new 0 0 102.2 48.6;" xml:space="preserve">
<style type="text/css">
	.st0{fill:#182939;}
</style>
<path class="st0" d="M47.4,0.1c4.6-0.3,9.3,1.3,12.2,4.5c1.8,2.3,2.5,5.2,2,8c-0.6,3.7-2.6,7-5.7,9.1h4.5l1.3-1.8h1.2l-2.1,3.8h-9.1
	l-0.2-0.3c3.6-2.7,6.3-6.3,6.7-11.3c0.4-3.2-0.8-6.5-3.4-8.6c-2.3-1.8-5.2-2.5-8.1-1.9c-2.7,0.7-5,2.6-6.3,5.1
	c-1.6,3.5-0.8,7.5,0.8,10.8c1.2,2.3,3,4.4,5.2,5.8l-0.3,0.3H37l-2-3.8h1l1.3,1.8H42c-3.4-2.3-5.5-5.9-5.9-9.9c-0.4-3,0.8-6,3-8.1
	C41.4,1.7,44.3,0.5,47.4,0.1"/>
<polyline class="st0" points="36.8,28.3 32.3,40.5 32.2,40.5 27.5,28.4 20.4,48 23.3,48 27.6,36.6 32.2,48.6 32.5,48.6 36.8,36.7 
	41.3,47.9 44.1,47.9 36.9,28.3 36.8,28.3 "/>
<path class="st0" d="M64.2,31.2c-2.5,2.4-3.6,5.8-2.9,9.2c0.6,2.8,2.4,5.2,4.8,6.6c2.8,1.6,6.2,1.7,9.1,0.4c2.5-1.1,4.3-3.2,5.2-5.8
	c0.4-1.3,0.8-2.6,0.4-3.8h-9.6v2.9h6.5c-0.6,1.6-1.7,2.9-3.1,3.8c-3.5,1.9-7.8,0.6-9.6-2.9c-0.3-0.6-0.5-1.2-0.7-1.8
	c-0.8-3.7,1.6-7.4,5.3-8.2c1.1-0.2,2.2-0.2,3.3,0.1c1.6,0.5,3,1.5,4.1,2.7l2.4-1.5c-0.4-0.5-0.8-1-1.2-1.4
	C74.2,27.7,68.1,27.6,64.2,31.2"/>
<polyline class="st0" points="46.3,29.1 46.3,47.9 57.5,47.9 57.5,45.1 49.3,45.1 49.3,39.8 57.5,39.8 57.5,37.1 49.3,37.1 
	49.3,31.9 57.5,31.9 57.5,29.1 46.3,29.1 "/>
<path class="st0" d="M87.6,41l3.6-7l3.7,7H87.6z M91.2,27.1L80.5,47.9h3.3l2.2-4h10.8l2.1,3.9h3.3L91.2,27.1"/>
<path class="st0" d="M9.8,45.6c3.8,0,6.9-3.1,7-6.9s-3.1-6.9-6.9-6.9s-6.9,3.1-7,6.9l0,0C2.9,42.5,6,45.6,9.8,45.6z M0,38.6
	c0-5.4,4.4-9.8,9.8-9.8s9.8,4.4,9.8,9.8s-4.4,9.8-9.8,9.8C4.4,48.4,0,44.1,0,38.6L0,38.6"/>
</svg>
