<?xml version="1.0" encoding="utf-8"?>
<!-- Generator: Adobe Illustrator 24.2.1, SVG Export Plug-In . SVG Version: 6.00 Build 0)  -->
<svg version="1.1"
	 id="svg2" xmlns:cc="http://creativecommons.org/ns#" xmlns:dc="http://purl.org/dc/elements/1.1/" xmlns:rdf="http://www.w3.org/1999/02/22-rdf-syntax-ns#" xmlns:svg="http://www.w3.org/2000/svg"
	 xmlns="http://www.w3.org/2000/svg" xmlns:xlink="http://www.w3.org/1999/xlink" x="0px" y="0px" viewBox="0 0 856.7 340.2"
	 style="enable-background:new 0 0 856.7 340.2;" xml:space="preserve">
<style type="text/css">
	.st0{fill:#182939;}
</style>
<g id="g12" transform="scale(0.1)">
	<path id="path14" class="st0" d="M8235.4,3388.3h99.5v-97.6h86.2v-72h-86.2v-280.4h-125.1l-246.3,251v101.3h271.9V3388.3z
		 M8053.6,3218.8l181.9-191.3v191.3H8053.6z M7526.9,3331.5c-84.3,0-112.7-70.1-112.7-167.7c0-136.4,53-169.5,112.7-169.5
		c67.3,0,106.1,53.1,106.1,172.4C7633,3239.6,7614.1,3331.5,7526.9,3331.5z M7523.1,3401.6c144,0,214.1-97.6,214.1-237.8
		c0-148.7-78.6-238.7-208.4-238.7c-174.3,0-218.8,122.2-218.8,238.7C7310,3304,7378.2,3401.6,7523.1,3401.6z M6843,3156.3
		c-64.4,0-98.5-36-98.5-77.7c0-40.7,27.5-84.3,101.3-84.3c61.6,0,104.2,30.3,104.2,81.5C6950.1,3126,6901.7,3156.3,6843,3156.3
		L6843,3156.3z M6836.4,3401.6c141.1,0,226.4-58.7,226.4-233c0-162.9-56.8-243.4-216.9-243.4c-129.7,0-204.6,59.7-204.6,158.2
		c0,99.5,87.1,143,181.9,143c54,0,101.3-13.3,140.2-50.2v17.1c0,59.7-14.2,138.3-118.4,138.3c-53,0-87.1-19.9-92.8-67.3h-103.3v12.3
		C6648.8,3348.6,6721.8,3401.6,6836.4,3401.6z M6164.8,3388.3h100.4v-449.9h-97.6c-36,32.2-73.9,51.1-134.5,69.1v87.2
		c52.1-15.2,104.2-37.9,131.7-65.4V3388.3z M4833.9,3388.3h95.7v-360.9l258.6,360.9h121.3v-473.6h-95.7v359.9l-258.6-359.9h-121.3
		V3388.3z M4418.1,3388.3h105.1v-473.6h-105.1V3388.3z M3736.1,3388.3h386.5v-76.7h-281.3v-128.8h254.8v-76.7h-254.8v-114.6h269.9
		v-76.7h-375.1V3388.3z M3200.9,3388.3h105.1v-396.9h180v-76.7h-465.1v76.7h180V3388.3z M2563.4,3401.6
		c161,0,230.2-71.1,230.2-156.3c0-78.6-54-126-159.1-133.6l-99.5-7.6c-66.3-4.7-90-28.4-90-66.3c0-40.7,43.6-66.3,105.1-66.3
		s103.3,22.7,107,84.3h106.1c-2.8-95.7-75.8-154.4-213.1-154.4s-215,67.3-215,152.5c0,85.2,58.7,133.6,169.6,142.1l102.3,7.6
		c55.9,3.8,76.7,22.7,76.7,58.7c0,36-35.1,69.1-120.3,69.1c-85.3,0-125-34.1-131.7-90h-107
		C2324.7,3338.1,2402.4,3401.6,2563.4,3401.6z M1728.9,3388.3h364.7v-76.7h-259.5v-396.9h-105.1V3388.3z M1220.3,2871.1h79.6v-76.7
		h-79.6V2871.1z M1041.2,2871.1h80.5v-76.7h-80.5V2871.1z M144.2,3388.3h106.1v-202.7h258.6v202.7H614v-473.6H508.9v194.2H250.3
		v-194.2H144.2V3388.3z M1171,3401.6c175.2,0,276.6-84.3,276.6-250.1c0-165.8-101.3-250.1-276.6-250.1
		c-175.2,0-276.6,84.3-276.6,250.1C894.4,3317.3,995.8,3401.6,1171,3401.6z M1171,3323.9c-102.3,0.9-164.8-61.6-164.8-172.4
		c0-110.8,62.5-173.3,164.8-172.4c102.3,1,164.8,61.6,164.8,172.4C1335.8,3262.4,1273.3,3323,1171,3323.9z M6751.3,2145.1
		c-173.9-140.1-260.8-333.6-260.8-580.4h484.5c-9,35.9-13.5,72.9-13.5,111c0,130.1,52.7,227.7,158.2,292.7
		c105.4,65.1,246.7,97.6,423.9,97.6c186.2,0,324.7-28,415.6-84.1c90.9-56.1,136.3-142.4,136.3-259.1c0-89.7-28.6-159.3-85.8-208.6
		c-57.2-49.3-128.5-83.5-213.7-102.6c-85.3-19-203-37.5-353.3-55.5c-195.2-24.7-352.2-53.3-471.1-85.8
		c-118.9-32.5-221-94.2-306.2-185.1c-85.3-90.8-127.9-221.5-127.9-392c0-217.6,89.7-387.5,269.2-509.8
		C6986.3,61.2,7236.4,0,7557.1,0C7860,0,8096,61.7,8265.4,185.1c169.3,123.4,254,296.1,254,518.2h-484.5
		c11.2-33.7,16.9-68.4,16.9-104.3c0-105.4-47.1-183.4-141.3-233.9c-94.2-50.5-216.5-75.7-366.8-75.7c-163.8,0-293.9,26.4-390.3,79.1
		c-96.5,52.7-144.7,134.1-144.7,243.9c0,85.3,27.5,150.9,82.4,196.8c55,46,124.5,78.5,208.6,97.6c84.1,19.1,199.1,37.6,344.9,55.5
		c195.1,22.5,353.8,50.5,476.1,84.1c122.2,33.6,227.1,97.6,314.6,191.8c87.5,94.2,131.2,229.9,131.2,407.1
		c0,136.9-37,258.6-111,365.1c-74,106.6-187.9,190.7-341.5,252.4c-153.7,61.7-343.8,92.5-570.3,92.5
		C7189.2,2355.4,6925.1,2285.3,6751.3,2145.1L6751.3,2145.1z M5588.8,2103V252.4c0-80.8-13.5-142.4-40.4-185.1h538.4
		c-26.9,42.6-40.4,104.3-40.4,185.1V2103c0,78.6,13.5,140.2,40.4,185.1h-538.4C5575.3,2243.2,5588.8,2181.6,5588.8,2103z
		 M4505.4,959c62.8-62.8,94.2-146.9,94.2-252.4c0-107.7-32-194-95.9-259.1c-63.9-65-149.7-97.6-257.4-97.6h-790.7v703.2h790.7
		C4356.2,1053.2,4442.5,1021.8,4505.4,959L4505.4,959z M5074,2156.8c13.5,47.1,33.7,90.9,60.6,131.2h-524.9l-84.1-646.1
		c-13.5-107.7-46-185.6-97.6-233.9c-51.6-48.2-134.6-72.3-249-72.3h-723.4V2103c0,78.6,13.5,140.2,40.4,185.1h-538.4
		c26.9-44.9,40.4-106.5,40.4-185.1V252.4c0-80.8-13.5-142.4-40.4-185.1h1349.3c255.7,0,446.9,54.4,573.7,163.2
		c126.7,108.8,190.1,251.8,190.1,429c0,139.1-42.1,255.2-126.2,348.3c-84.1,93.1-192.4,155.4-324.7,186.7
		c112.1,29.2,197.4,81.3,255.7,156.5c58.3,75.2,96.4,174.4,114.4,297.8l47.1,329.7C5048.2,2050.3,5060.6,2109.7,5074,2156.8
		L5074,2156.8z M1724.4,1953.3c126.7-75.1,226.6-180,299.5-314.6c72.9-134.6,109.4-288.2,109.4-461c0-172.7-36.5-326.4-109.4-461
		c-72.9-134.6-172.8-239.4-299.5-314.6c-126.7-75.1-267.5-112.7-422.3-112.7c-154.8,0-295.6,37.6-422.3,112.7
		c-126.8,75.2-226.6,180-299.5,314.6c-72.9,134.6-109.4,288.3-109.4,461c0,172.8,36.4,326.4,109.4,461
		c72.9,134.6,172.7,239.5,299.5,314.6c126.7,75.2,267.5,112.7,422.3,112.7C1456.9,2066,1597.7,2028.5,1724.4,1953.3z M651.1,2203.9
		c-198.5-100.9-356.7-241.1-474.4-420.6C58.9,1603.9,0,1402,0,1177.7C0,953.4,58.9,751.5,176.7,572
		c117.8-179.4,275.9-319.7,474.4-420.6C849.6,50.5,1066.6,0,1302.2,0c235.5,0,452.6,50.5,651.1,151.4
		c198.5,100.9,356.7,241.2,474.4,420.6c117.8,179.5,176.6,381.4,176.6,605.7c0,224.3-58.9,426.2-176.6,605.7
		c-117.8,179.5-275.9,319.7-474.4,420.6c-198.5,100.9-415.5,151.4-651.1,151.4C1066.6,2355.4,849.6,2304.9,651.1,2203.9"/>
</g>
</svg>
