<?xml version="1.0" encoding="utf-8"?>
<!-- Generator: Adobe Illustrator 24.2.1, SVG Export Plug-In . SVG Version: 6.00 Build 0)  -->
<svg version="1.1" id="Layer_1" xmlns="http://www.w3.org/2000/svg" xmlns:xlink="http://www.w3.org/1999/xlink" x="0px" y="0px"
	 viewBox="0 0 145.8 46.3" style="enable-background:new 0 0 145.8 46.3;" xml:space="preserve">
<style type="text/css">
	.st0{fill:#182939;}
</style>
<path class="st0" d="M1.3,43.3v0.3c-0.1,0.8,0.5,1.6,1.3,1.7c0.1,0,0.2,0,0.3,0c1,0,1.7-0.4,1.7-1.5c0-2.1-4.2-1.9-4.2-4.7
	c-0.1-1.4,1-2.5,2.4-2.6c0.1,0,0.3,0,0.4,0c1.7,0,2.7,0.8,2.6,2.8H4.4c0-1-0.3-1.7-1.4-1.7c-0.7-0.1-1.4,0.5-1.5,1.2
	c0,0.1,0,0.1,0,0.2c0,2.1,4.3,1.8,4.3,4.8c0,2-1.4,2.6-2.9,2.6c-2.8,0-2.8-2.1-2.8-3L1.3,43.3"/>
<polyline class="st0" points="13.4,36.6 14.7,36.6 16.4,44.8 16.5,44.8 18.4,36.6 19.9,36.6 21.6,44.8 21.7,44.8 23.6,36.6 
	24.9,36.6 22.4,46.1 20.9,46.1 19.1,37.8 19.1,37.8 17.1,46.1 15.7,46.1 13.4,36.6 "/>
<rect x="32.9" y="36.6" class="st0" width="1.2" height="9.5"/>
<polyline class="st0" points="48.4,36.6 48.4,37.6 46,37.6 46,46.1 44.8,46.1 44.8,37.6 42.3,37.6 42.3,36.6 48.4,36.6 "/>
<polyline class="st0" points="61.5,37.8 56.8,45 61.6,45 61.6,46.1 55.7,46.1 55.7,44.7 60.3,37.7 60.3,37.6 55.8,37.6 55.8,36.6 
	61.5,36.6 61.5,37.8 "/>
<polyline class="st0" points="69.7,46.1 69.7,36.6 74.6,36.6 74.6,37.6 70.9,37.6 70.9,40.7 74.3,40.7 74.3,41.7 70.9,41.7 70.9,45 
	74.7,45 74.7,46.1 69.7,46.1 "/>
<path class="st0" d="M84.2,37.6H86c0.7,0,1.3,0.6,1.3,1.3c0,0.1,0,0.1,0,0.1c0,0.8-0.4,1.6-1.3,1.6h-1.8V37.6z M85.6,41.7
	c0.7-0.1,1.3,0.4,1.4,1.1c0,0.1,0,0.1,0,0.2c0,1.1,0.1,2.1,0.4,3.2h1.3c-0.2-0.8-0.3-1.7-0.3-2.5c-0.1-1.9-0.5-2.3-1.5-2.5l0,0
	c1.1-0.2,1.8-1.1,1.7-2.2c0.1-1.2-0.7-2.2-1.9-2.4c-0.1,0-0.3,0-0.4,0H83v9.5h1.2v-4.4L85.6,41.7"/>
<polyline class="st0" points="97.1,46.1 97.1,36.6 98.3,36.6 98.3,45 101.7,45 101.7,46.1 97.1,46.1 "/>
<path class="st0" d="M114,42.8h-3l1.5-5.1l0,0L114,42.8z M108.8,46.1h1.2l0.7-2.3h3.7l0.7,2.3h1.4l-3.1-9.5h-1.5L108.8,46.1"/>
<polyline class="st0" points="130.9,36.6 130.9,46.1 129.3,46.1 125.5,37.8 125.5,37.8 125.5,46.1 124.4,46.1 124.4,36.6 
	126.1,36.6 129.8,44.7 129.8,44.7 129.8,36.6 130.9,36.6 "/>
<path class="st0" d="M141.1,37.6h1.6c1.3,0,1.9,0.7,1.9,2.6v1.9c0,2.2-0.6,2.8-2.3,2.8h-1.1L141.1,37.6L141.1,37.6z M139.9,46.1h2.2
	c1.6,0,2.6-0.4,3.1-1.2c0.4-0.6,0.6-1.8,0.6-3.8c0-1-0.1-2-0.4-3c-0.5-1-1.5-1.5-2.5-1.4H140L139.9,46.1"/>
<path class="st0" d="M73.1,26.3c-2-8.3-4.4-16.5-6.4-25.1l-0.2-0.3H46.4c-0.5,1.6-1,3.3-1.4,5l-4.3,15.8c-0.6,1.7-0.6,3.5-1.5,5
	c-0.5,0.8-1.4,1.2-2.3,1.1v1.9h14.6v-1.8c-0.7,0.2-1.4,0-1.9-0.6c-0.4-0.4-0.6-0.9-0.5-1.4l1.1-4.7l0.2-0.3h12l0.1,0.1
	c0.3,1,0.5,2,0.7,3c0.1,1,0.8,2.5-0.3,3.3c-0.5,0.5-1.1,0.5-1.7,0.5C61,28.4,61,29,61,29.7h14.8v-1.9C74.7,27.9,73.6,27.3,73.1,26.3
	z M51,18l0.1-0.4L54.4,4c1.4,0,2.3,0,4,0l3.2,14H51"/>
<path class="st0" d="M145.4,6.8c-1.1-3.4-4-6-7.5-6.5c-3.5-0.3-7-0.3-10.5-0.3c-2.2,0.1-4.5,0.1-6.4,1c-3.1,1.5-5.1,4.5-5.4,7.9
	l-0.1,11c0,1.2,0.1,2.5,0.6,3.6c1.2,3.3,4.1,5.6,7.5,6.1c4.1,0.2,8.5,0.2,12.6,0c1.4,0,2.8-0.3,4.1-0.9c3.1-1.4,5.2-4.3,5.4-7.7v-9
	C145.9,10.3,145.7,8.5,145.4,6.8z M136.5,7.8l-0.1,15c-0.3,1.7-1.5,3.1-3.1,3.7c-2.1,0.6-4.4,0.5-6.5-0.4c-1.3-0.8-2.1-2.2-2.3-3.7
	V7.2c0.2-1.7,1.3-3.1,2.8-3.8c2.2-0.8,5.5-0.9,7.4,0.7l1.1,1.2C136.4,6.1,136.6,6.9,136.5,7.8"/>
<path class="st0" d="M100.5,0.8H77.9l-0.1,0.1v2c0.5-0.1,1,0,1.5,0.1c1,0.4,1.6,1.3,1.6,2.4v20.3l-0.3,0.8c-0.6,0.8-1.5,1.3-2.5,1.3
	c0,0.7,0,0.7,0,2h16.1c3.5-0.2,7.4,0.4,10.4-1.2c3.1-1.6,5.1-4.7,5.3-8.2V9.9c-0.1-0.9-0.3-1.9-0.6-2.8C107.9,3.5,104.4,1,100.5,0.8
	z M100.7,23.1c-0.1,1.2-0.7,2.2-1.7,2.9c-0.8,0.5-1.6,0.7-2.5,0.7c-2.8,0-4.2,0.1-6.4,0.1v-0.6V3.9l7.1-0.1c1.2,0.1,2.2,0.8,2.9,1.8
	c0.4,0.6,0.6,1.3,0.6,2V23.1"/>
<path class="st0" d="M32.6,26.6c-1.1-1.8-1.6-4-2.5-5.9c-0.9-1.8-2.7-3.1-4.8-3.3c2-0.1,3.8-1.1,5-2.8c2.1-2.7,1.7-7.1,0.2-9.9
	c-1.7-2.8-4.7-3.9-7.7-4H0v1.8c0.5,0,1.1,0,1.6,0.2C2.5,3.2,3.1,4,3.2,5v20.1l-0.3,1c-0.5,1-1.7,1.6-2.8,1.4c0,0.7,0,1.3,0.1,2h15.5
	v-1.8c-0.6,0-1.1-0.1-1.6-0.3c-0.8-0.5-1.3-1.2-1.5-2.1v-6.7l0.1-0.1h4.8c3,0.7,3.7,3.9,4.5,6.3c0.7,1.8,1.5,4.1,3.7,4.7l9.4-0.1v-2
	C34,27.8,33.1,27.4,32.6,26.6z M22.8,12.4c-0.5,1.7-1.9,2.9-3.6,3.2c-2.1,0.2-4.4,0-6.6,0V3.8c5.3,0,7.7-1,9.7,2.2
	C23.1,8.1,23.2,10.3,22.8,12.4"/>
</svg>
