<?xml version="1.0" encoding="utf-8"?>
<!-- Generator: Adobe Illustrator 24.2.1, SVG Export Plug-In . SVG Version: 6.00 Build 0)  -->
<svg version="1.1" id="Layer_1" xmlns="http://www.w3.org/2000/svg" xmlns:xlink="http://www.w3.org/1999/xlink" x="0px" y="0px"
	 viewBox="0 0 1783 641" style="enable-background:new 0 0 1783 641;" xml:space="preserve">
<style type="text/css">
	.st0{fill-rule:evenodd;clip-rule:evenodd;fill:#182939;}
	.st1{fill:none;}
</style>
<g>
	<g transform="translate(-10 -7)">
		<path class="st0" d="M10,347h326v67.9H221V639h-94V414.9H10V347z"/>
		<path class="st0" d="M365,347h95v292h-95V347"/>
		<path class="st0" d="M1468,347h325v67.9h-114.5V639h-93.8V414.9H1468V347z"/>
		<path class="st0" d="M1308,340v51.8l-17.8,2c-39.9,9.4-55.7,49.8-55.7,98.3s16.4,88.9,55.9,98.3l17.6,2V644l-33.2-2
			c-76.8-9.9-134.7-55.3-134.7-149.9c-0.1-89,57.8-138.7,134.7-149.8L1308,340z"/>
		<path class="st0" d="M1308.8,340c93.9,0,169.9,56.7,170.1,152.1C1479,588,1402.7,644,1308.8,644h-0.8v-51.7l0.8,0.1
			c49.7,0,73.3-44.9,73.3-100.3s-27.2-100.3-73.3-100.3l-0.8,0.1v-51.8L1308.8,340z"/>
		<path class="st0" d="M961.8,342.5c29.3,0.5,58.5,7,85.3,18.8c31.9,13.9,58.3,43.5,59.5,80.4H1022c-3.9-15-11.5-28-24.8-36.9
			c-16.5-10.8-35.4-12-54.1-7.2c-14.2,3.7-29.7,15.9-23.8,32.2c3.4,9.8,13.9,14.3,23.8,17c47.2,12.8,94.4,15.3,137.2,41.3
			c21,12.8,32.6,35.1,32.3,58.3c-1,76.7-73.4,101.6-142.9,101.6c-20.8,0-41.3-2.2-59.6-6c-51.2-10.4-100.2-48.3-96.4-104.2h89.1
			c5.5,12,3.3,24.3,11.5,35.8c4.5,6.4,9.7,11.8,16.1,15.1c5.1,2.7,10,5.9,15.6,7.3c14.8,3.7,30.1,4.2,44.1-0.5
			c10.3-3.3,19.5-10.3,24.2-20.7c2.6-5.6,2.5-12.3,0.5-18.4c-1.3-3.4-3.4-6.7-5.2-9.5c-6.8-10.7-19.2-13.4-30.8-17.1
			c-51.7-16.2-119.9-9.7-148.3-64.2c-8.4-16.2-8.9-34.4-4.5-52.7c3.1-12.9,11.5-23.5,20.6-32.1c8.4-8.1,17.9-16,29.1-21
			C903,347.5,932.5,342,961.8,342.5z"/>
		<path class="st0" d="M638.8,341.5c29.3,0.5,58.5,7,85.3,18.7c31.8,13.8,58.1,43.3,59.5,80.1h-84.7c-3.9-14.9-11.4-27.9-24.8-36.6
			c-16.4-10.9-35.2-12.1-54.1-7.3c-14,3.7-29.6,15.8-23.8,32.1c3.6,9.8,14,14.3,23.8,16.9c47.2,12.7,94.6,15.2,137.4,41.1
			c21,12.9,32.6,34.9,32.3,58.1c-1.1,76.4-73.5,101.3-143,101.3c-20.8,0-41.4-2.2-59.7-6c-51.2-10.4-100-48.1-96.3-103.9h89
			c5.4,11.9,3.3,24.4,11.5,35.7c4.7,6.4,9.7,11.8,16.2,15.1c5,2.6,9.8,5.8,15.6,7.3c14.8,3.7,29.9,4,43.9-0.5
			c10.4-3.3,19.5-10.2,24.3-20.6c2.5-5.6,2.5-12.3,0.3-18.3c-1.2-3.4-3.3-6.7-5.1-9.5c-6.7-10.7-19-13.3-30.7-17.1
			c-51.9-16.1-120.1-9.6-148.5-64c-8.3-16.1-8.7-34.3-4.5-52.5c3.1-12.9,11.5-23.4,20.6-32c8.6-8.1,17.9-16,29.1-21
			C579.9,346.5,609.4,341,638.8,341.5z"/>
		<path class="st0" d="M638,8h127v33.1h-93.4v42h65.6v141.7H765V255H638V8z"/>
		<path class="st0" d="M765,8h124v247H765v-30.3h28.8V83H858V41h-93V8z"/>
		<path class="st1" d="M672,41h186v41.8h-64.2V224h-56.5V82.8H672V41z"/>
		<path class="st0" d="M919,7h127v32.3h-27.4v63.8h-64.9v55.3h64.9v64.2h27.4V256H919V7z"/>
		<path class="st0" d="M1046,7h125v249h-125v-33.4h27.1v-64.2h64.4v-55.3h-64.4V39.3H1046V7z"/>
		<path class="st1" d="M1018.4,39h54.3v63.6h64.3v55.2h-64.3V222h-54.3v-64.1H954v-55.2h64.4V39z"/>
	</g>
</g>
</svg>
