<?xml version="1.0" encoding="utf-8"?>
<!-- Generator: Adobe Illustrator 24.2.1, SVG Export Plug-In . SVG Version: 6.00 Build 0)  -->
<svg version="1.1" id="Layer_1" xmlns="http://www.w3.org/2000/svg" xmlns:xlink="http://www.w3.org/1999/xlink" x="0px" y="0px"
	 viewBox="0 0 2750 948" style="enable-background:new 0 0 2750 948;" xml:space="preserve">
<style type="text/css">
	.st0{fill-rule:evenodd;clip-rule:evenodd;fill:#182939;}
</style>
<g>
	<path class="st0" d="M373.4,8H548c-7.3,4.6-14.2,9.6-20.2,15.6l-13.3,20.2c-4.1,8.3-6.4,17.4-6.9,27.1c-1.8,11.9-2.7,23.9-2.3,35.8
		v195c0.5,7.3,0,15.1-2.3,22.5c0,6.9-2.3,11-2.3,17.9c-0.5,6-2.3,12.4-4.6,17.9c-6,19.7-16,38.1-28.9,53.7
		c-14.2,15.6-30.7,29.4-49,40.4c-21.1,11.5-43.5,19.7-66.9,24.8c-27,6.4-55,9.2-82.9,9.2c-38,0-75.6-5-111.8-15.6
		c-29.8-9.6-56.4-26.6-78.4-49.1c-13.3-16.1-22.9-34-28.9-53.7c-5.5-24.8-7.8-50.5-6.9-76.2V109.9c0.5-11.9-0.5-23.9-2.3-35.8
		L33.4,47L20.2,26.8c-6-6-12.8-11-20.2-15.6h174.6l-6.9,2.8c-8.2,6-15.1,13.3-20.2,22.5c-5,8.3-8.2,17.4-9.2,27.1
		c0,3.2-0.5,6.4-2.3,9.2c-2.3,4.6,0,9.2-2.3,13.3c-2.3,4.6,0,9.2,0,13.3v170.2c-0.5,14.2,0.5,28.5,2.3,42.7
		c0.5,10.6,1.8,21.1,4.6,31.2c2.3,8.3,6,15.6,11,22.5c4.6,6.9,11,13.3,17.9,17.9c13.3,10.6,28.4,18.4,44.9,22.5
		c20.6,5.5,41.7,8.3,62.8,9.2c25.2-0.5,49.9-4.1,73.8-11c19.2-7.3,36.7-19.7,49-35.8c3.7-4.6,6.9-10.1,9.2-15.6
		c2.7-6.4,4.1-13.3,4.6-20.2c1.8-8.3,2.3-16.5,2.3-24.8V109c0.5-11.9-0.5-23.9-2.3-35.8c0-9.2-2.3-18.4-6.9-27.1
		c-2.7-7.8-7.3-14.7-13.3-20.2C386.7,19,380.3,14.9,373.4,8z"/>
	<path class="st0" d="M1006,477h1l-1,1V477z"/>
	<path class="st0" d="M638,7h170c-4.1,3.2-6.9,8.3-6.9,13.3c-0.5,3.7,0,7.8,2.3,11c0.9,6.9,4.1,12.9,9.2,17.9L1049.4,359V108
		c0.5-11.5-0.5-22.5-2.3-33.5c0-9.2-2.3-18.4-6.9-27.1c-2.3-4.6-2.3-6.9-4.6-9.2c-2.3-2.3-4.1-5.5-4.6-9.2c-2.3-4.6-6.9-6.9-9.2-9.2
		l-13.3-11H1174c-7.3,4.6-14.2,9.6-20.2,15.6c-5,6-9.6,12.9-13.3,20.2c-4.1,8.3-6.4,17.4-6.9,27.1c-1.8,11.9-2.8,23.9-2.3,35.8V448
		c-0.5,4.6,0.5,9.2,2.3,13.3c0.5,3.2,2.3,6.4,4.6,9.2l6.9,6.9H1007l2.9-5c0.8-1.4,1.4-2.6,1.4-3.7c0-2.3,2.3-4.6,2.3-6.9
		c-2.8-7.3-6.4-13.8-11-20.2L761.2,130v251c-0.5,11.9,0.5,23.9,2.3,35.8c0,9.2,2.3,18.4,6.9,27.1c2.7,7.3,6.4,13.8,11,20.2
		c6.9,6.9,13.3,11,20.2,17.9H638c7.3-5.5,14.2-11.5,20.2-17.9c4.6-6.4,8.2-12.9,11-20.2c2.3-9.2,4.6-17.9,6.9-24.8
		c1.8-11.9,2.7-23.9,2.3-35.8V108c0.5-11.9-0.5-23.9-2.3-35.8c0-9.2-2.3-18.4-6.9-27.1c-2.7-7.3-6.4-13.8-11-20.2
		C652.2,18.5,645.3,12.5,638,7z"/>
	<path class="st0" d="M1264,10h174.7c-7.3,5.5-14.2,11.5-20.2,17.9c-4.6,6.4-8.3,12.8-11,20.2c-2.3,9.2-4.6,17.9-6.9,24.8
		c-1.8,11.9-2.7,23.8-2.3,35.8v273.2c-0.4,11.5,0.5,22.5,2.3,33.5c0,9.2,2.3,18.3,6.9,27c2.3,6.9,6.4,12.8,11,17.9
		c6.4,7.3,14.2,13.3,22.5,17.9h-174.7c7.3-4.6,14.2-9.6,20.2-15.6l13.3-20.2c4.1-8.3,6.4-17.4,6.9-27c1.8-11.9,2.8-23.8,2.3-35.8
		V108.6c0.5-11.9-0.5-23.8-2.3-35.8c-1.8-9.2-5.1-18.3-9.2-27c-2.8-7.8-7.3-14.7-13.3-20.2C1278.2,19.6,1271.3,14.6,1264,10z"/>
	<path class="st0" d="M1802,1v73.9l-29.3,1.3c-36.2,5-70.7,19.9-99.4,43.3c-33.4,32.1-51.2,77-48.9,123.3
		c-2.7,46.3,13.3,91.2,44.8,125.2c35.6,31.2,82.2,47.2,129.3,44.9l3.5-0.2V489l-1.2,0.1c-39.3,0.9-78.6-5-116.1-17.9
		c-32.9-9.6-63.5-26.6-89.1-49.1c-24.7-20.6-44.8-46.8-58-76.1c-10.1-31.6-14.6-65.1-13.3-98.6c0-35.3,6.8-70.2,20.1-103.2
		c13.7-29.8,33.8-56.4,58-78.4c26.5-22,56.7-38.5,89.1-49.1c29.1-8.3,59.3-13.4,89.7-15.3L1802,1z"/>
	<path class="st0" d="M1811.8,0.9c38.1-0.9,76.3,5,112.2,17.9c31.3,9.6,60.2,25.7,85.5,47.2c23.9,19.7,42.3,45.4,53.8,73.8
		c13.8,31.2,19.8,64.6,17.9,98.5c0,35.3-6.9,70.1-20.2,103.1c-13.3,29.8-32.2,56.4-56.1,78.4c-25.3,22.9-55.2,40.8-87.3,51.3
		c-28.3,8.6-57.6,14.1-87.1,16.5L1802,489v-76.2l32.8-1.5c35.9-5,70.1-19.9,98.4-43.2c34-33.5,51-80.2,47.3-127.4
		c2.8-44.9-13.8-88.5-45.1-121c-30.2-27.7-68.4-43.4-108.6-45.1c-5.7-0.2-11.5-0.2-17.3,0.2L1802,75V1.2L1811.8,0.9z"/>
	<path class="st0" d="M2535,477h1l-1,1V477z"/>
	<path class="st0" d="M2166,8h169.9c-4.6,4.1-7.8,9.6-9.2,15.6c-0.5,3.7,0,7.8,2.3,11c2.3,6,6.4,11.4,11,15.6l236.7,308.7V108.3
		c0.4-11.4-0.5-22.4-2.3-33.4c0-9.2-2.3-18.3-6.9-27c-2.3-4.6-2.3-6.9-4.6-9.2c-2.3-2.3-4.6-6.9-6.9-9.2c-2.3-2.3-4.6-6.9-9.2-9.2
		l-13.3-11H2699c-7.3,4.6-14.2,9.6-20.1,15.6l-13.3,20.2c-4.1,8.2-6.4,17.4-6.9,27c1.8,11.9,2.8,23.8,2.3,35.7v339.8
		c-0.5,4.6,0.5,9.2,2.3,13.3c0.5,3.2,2.3,6.4,4.6,9.2l6.9,6.9h-139.4l2-3.3c0.6-1.4,1.1-3.1,2.3-5.4c2.3-4.6,2.3-4.6,2.3-6.9
		c-1.8-7.8-6-14.7-11-20.1l-241.3-312.8v252.8c-0.4,11.9,0.5,23.8,2.3,35.7c0,9.2,2.3,18.3,6.9,27c2.8,7.8,7.3,14.7,13.3,20.2
		c6.9,6.9,13.3,11,20.1,17.9H2166c7.3-5.5,14.2-11.4,20.1-17.9l13.3-20.2c2.3-9.2,4.6-17.9,6.9-24.7c1.8-11.9,2.8-23.8,2.3-35.7
		V108.8c0.5-11.9-0.5-23.8-2.3-35.7c0-9.2-2.3-18.3-6.9-27c-2.8-7.8-7.3-14.7-13.3-20.2C2180.2,19.4,2173.3,13.5,2166,8z"/>
	<path class="st0" d="M147.4,669.5c14.7-0.5,29.4,2.8,42.7,9.2c11.5,5.5,21.6,14.2,28.9,24.8c9.2,13.3,15.1,28.9,17.9,45l-27.1,9.2
		c-2.3-11.9-6.9-23.4-13.3-33.5c-6.4-7.3-14.2-13.3-22.5-17.9c-9.2-4.1-18.8-6.4-28.9-6.9c-14.2,0-28,3.7-40.4,11
		c-12.9,8.7-22,21.1-27.1,35.8c-9.2,18.8-12.9,39.5-11,60.6c-1.8,28.5,6,56.9,22.5,80.8c14.2,17.4,35.8,27.5,58.3,27.1
		c12.4,0,24.8-2.8,35.8-9.2c11-4.6,21.1-11.5,28.9-20.2v-49.6H147v-31.2h95v101c-12.9,13.3-28,23.9-45,31.2
		c-14.7,6.9-30.8,10.6-47.3,11c-20.7,0.5-40.8-5-58.3-15.6c-17.9-11-32.1-27.5-40.4-47.3C40.5,861.7,35,836,35.5,810.8
		c-0.5-27.1,5-53.7,15.6-78.5c8.3-18.8,21.6-34.9,38.1-47.3C106.6,674.5,126.8,669,147.4,669.5z"/>
	<path class="st0" d="M313,672h26.9v239.8H449V943H313V672z"/>
	<path class="st0" d="M311,672h3v3h-3V672"/>
	<path class="st0" d="M579.3,672H596v34.2l-1.1-5.3c-2.8,17.4-6.4,34.4-11,51.4l-24.8,78.5H596v29.4h-46.1L525.2,941H494L579.3,672z
		"/>
	<path class="st0" d="M596,672h14.5L700,941h-33.5l-24.8-80.8H596v-29.4h37l-22.5-73.9c-5.2-16.9-10.1-32.4-13.2-44.8l-1.3-5.9V672z
		"/>
	<path class="st0" d="M828.9,666.5c14.7-0.5,29.4,2.7,42.8,9.2c12,6.4,21.6,15.6,29,27c6.9,13.3,11,27.5,11,42.6l-29,2.3
		c-0.5-14.7-6-28.9-15.6-40.3c-11-8.7-24.4-13.3-38.2-13.3c-13.8-0.9-27.1,3.2-38.2,11c-9.2,6.9-13.3,17.9-11,28.9
		c-0.5,9.2,2.8,17.9,9.2,24.7c12.9,9.2,27.1,15.1,42.8,17.9c15.6,3.7,30.4,9.2,45.1,15.6c12.4,6.4,23,15.6,31.3,27
		c6.9,12.4,11,26.1,11,40.3c0.9,15.1-3.2,29.8-11,42.6c-6.9,12.4-17,22.4-29,28.9c-13.8,6.9-29.4,11-45.1,11
		c-24.4,2.3-48.3-6.9-65.3-24.7c-17.9-17.4-26.7-42.1-24.8-66.9l25.3,3.7c0.5,11.9,4.1,23.8,11,33.4c5.1,8.7,12.9,16,22.5,20.1
		c10.6,4.6,22.1,6.9,33.6,6.9c14.7,0.5,29-4.6,40.5-13.3c9.7-8.2,14.7-20.6,13.3-33.4c-0.5-6.9-1.8-13.7-4.6-20.2
		c-4.1-6.4-9.2-11.5-15.6-15.6c-14.3-6.4-29.4-11.9-45.1-15.6s-30.8-9.6-45.1-17.9c-9.2-6-16.1-14.7-20.2-24.7
		c-12.9-29.3-7.4-63.2,13.3-87C788.5,673.3,808.2,666.5,828.9,666.5z"/>
	<path class="st0" d="M989,672h28.5v111.9h114.3V672h31.2v268.7h-28.5V815.5h-116.6V943H989V672z"/>
	<path class="st0" d="M1243,670h28.9v156.2c-0.9,17.9,0.9,36.2,4.6,53.6c2.3,10.1,8.7,19.2,17.9,24.7c9.2,6.4,20.2,9.6,31.2,9.2
		c17,2.3,34-4.6,45-17.9c11.9-21.1,17.4-45.3,15.6-69.2V672.3h0.9h28.9v156.6c0,21.1-2.3,42.1-6.9,62.7c-4.6,16-14.2,29.8-27.1,40.3
		c-15.1,10.1-33.5,14.7-51.4,13.3c-24.8,2.7-49.6-7.3-65.2-27c-15.6-17.9-22.5-49-22.5-91.6V670z"/>
	<path class="st0" d="M1342,603h29v38l-29-2.3V603z"/>
	<path class="st0" d="M1287,603h28v38l-28-2.3V603z"/>
	<path class="st0" d="M1470,672h174v31.3h-73.5V941h-28.8V705.6H1470V672z"/>
	<path class="st0" d="M1678,672h175v31.3h-71.7V941h-28.9V705.6H1678V672z"/>
	<path class="st0" d="M1911,672h158.1v31.3h-129.3v83.2h120.7v31.3h-120.7v92H2076V941h-165V672z"/>
	<path class="st0" d="M2192.6,668h22.4l-62.6,277H2130L2192.6,668z"/>
	<path class="st0" d="M2328.5,666.5c3.7-0.5,7.3,0,11,0c14.7-0.5,29.4,2.7,42.7,9.1c11.9,6.4,21.6,15.5,28.9,27
		c6.9,13.3,11,27.4,11,42.5l-28.9,2.3c-0.5-14.6-6-28.8-15.6-40.2c-11-8.7-24.3-13.3-38.1-13.3c-13.8-0.9-27.1,3.2-38.1,11
		c-8.7,6.9-13.8,17.8-13.3,28.8c-0.4,9.1,2.8,17.8,9.2,24.7c12.8,9.1,27.1,15.1,42.7,17.8c16.1,4.1,31.6,9.6,47.3,15.5
		c12.4,6.4,22.9,15.5,31.2,27c7.3,11.9,10.6,26.1,9.2,40.2c0.9,15.1-3.2,29.7-11,42.5c-6.9,12.3-17,22.4-28.9,28.8
		c-13.8,6.9-29.4,11-45,11c-24.3,2.7-48.6-6.4-65.1-24.7c-17.9-17.4-26.6-42.1-24.8-66.8l28.9,3.7c0.5,11.9,3.7,22.9,9.2,33.4
		c5.1,8.7,12.9,16,22.5,20.1c10.6,4.6,22,6.9,33.5,6.9c14.7,0.5,28.9-4.6,40.4-13.3c9.6-8.2,14.7-20.6,13.3-33.4
		c0.9-14.6-6.9-28.8-20.2-35.7c-14.2-6.4-29.4-11.9-45-15.5c-15.6-3.7-30.7-9.6-45-17.8c-9.2-5.9-16.1-14.6-20.2-24.7
		c-4.6-10.5-6.9-22-6.9-33.4C2260.6,701.7,2290,668.7,2328.5,666.5z"/>
	<path class="st0" d="M2560.3,672h16.7v34.1l-1.1-5.3c-2.8,17.4-6.4,34.4-11,51.4l-24.8,78.4h36.9V860h-46.1l-24.8,83H2475
		L2560.3,672z"/>
	<path class="st0" d="M2577,672h14.3l88.7,269h-33.2l-24.6-80.8H2577v-29.4h36.6l-22.3-73.9c-5.1-16.9-10-32.4-13.1-44.8l-1.3-5.9
		V672z"/>
	<path class="st0" d="M2718,905h32v38h-32V905"/>
</g>
</svg>
