<svg width="4846" height="1291" xmlns="http://www.w3.org/2000/svg" xmlns:xlink="http://www.w3.org/1999/xlink" xml:space="preserve" overflow="hidden"><defs><clipPath id="clip0"><rect x="0" y="0" width="4846" height="1291"/></clipPath></defs><g clip-path="url(#clip0)"><path d="M4739.93 440 4839.63 440 4839.63 454.032 4760.94 614.299 4846 614.299 4846 631 4737 631 4737 616.699 4816.77 456.725 4739.93 456.725 4739.93 440Z" fill="#B58045" fill-rule="evenodd"/><path d="M4635.61 436C4662.13 436 4682.01 454.639 4683.59 481.224L4663.7 481.224C4663.41 465.279 4652.04 452.791 4635.86 452.791 4595.53 452.791 4592.89 507.566 4592.89 537.096 4592.89 565.012 4595.8 618.204 4634.01 618.204 4653.89 618.204 4665.81 603.306 4666.09 584.447L4686 584.447C4683.86 615.551 4665.02 635 4633.22 635 4580.69 635 4573 577.257 4573 536.566 4573 494.53 4581.73 436 4635.61 436Z" fill="#B58045" fill-rule="evenodd"/><path d="M1436 526 1474.33 526 1492.31 790.362 1493.25 790.362 1547.22 620.547 1600.69 790.362 1601.64 790.362 1618.66 526 1657 526 1630.98 868 1590.28 868 1547.22 721.232 1503.67 868 1464.39 868 1436 526Z" fill="#B58045" fill-rule="evenodd"/><path d="M1817.24 697 1821 697.267 1821 726.711 1809.56 728.002C1782.98 734.38 1772.2 761.637 1772.2 789.591 1772.2 813.111 1784.39 840.389 1811.62 840.389L1821 839.395 1821 869.018 1811.62 870C1763.74 870 1737 832.374 1737 787.725 1737 739.313 1766.57 697 1817.24 697Z" fill="#B58045" fill-rule="evenodd"/><path d="M1821 608 1821 637.754 1810.37 638.902C1794.37 642.216 1779.04 649.637 1763.94 656L1756 624.901C1773.88 617.833 1790.72 611.57 1809.06 608.881L1821 608Z" fill="#B58045" fill-rule="evenodd"/><path d="M1828.11 608C1876.62 608 1906.06 647.554 1906.06 689.39L1906.06 798.542C1906.06 821.613 1909.39 845.142 1917 866.772L1883.73 871 1874.71 839.468C1861.87 854.651 1847.7 864.269 1830.19 868.128L1821 869.079 1821 839.434 1821.34 839.398C1843.18 834.708 1857.5 814.838 1870.43 797.137L1870.43 738.8C1855.19 732.202 1839.06 726.56 1821.94 726.56L1821 726.665 1821 697.198 1831.25 697.915C1845.11 699.808 1858.31 704.211 1870.43 709.14L1870.43 685.167C1870.43 657.392 1853.29 637.633 1826.69 637.633L1821 638.237 1821 608.515 1828.11 608Z" fill="#B58045" fill-rule="evenodd"/><path d="M2038.14 535 2073.42 535 2073.42 612.371 2163.33 612.371 2163.33 642.103 2073.42 642.103 2073.42 786.021C2073.42 810.535 2073.89 840.281 2105.9 840.281 2132.74 840.281 2149.22 818.093 2159.11 795.914L2193 804.427C2176.04 840.74 2147.33 870 2104.94 870 2064.03 870 2038.14 850.18 2038.14 774.69L2038.14 642.103 1984 642.103 1984 612.371 2038.14 612.371 2038.14 535Z" fill="#B58045" fill-rule="evenodd"/><path d="M2369.3 608C2410.73 608 2439.9 630.577 2462 663.991L2431.41 684.176C2418.72 658.817 2400.35 637.622 2369.3 637.622 2333.56 637.622 2297.32 663.991 2297.32 738.273 2297.32 816.864 2337.79 840.378 2370.25 840.378 2398 840.378 2419.66 819.22 2436.58 798.958L2460.61 823.895C2435.18 851.17 2409.77 870 2370.72 870 2324.15 870 2262 841.298 2262 741.576 2262 640.93 2318.97 608 2369.3 608Z" fill="#B58045" fill-rule="evenodd"/><path d="M2567 515 2602.3 515 2602.3 648.986C2620.19 624.901 2647 607.459 2678.08 607.459 2708.19 607.459 2743 616.891 2743 720.228L2743 865 2707.72 865 2707.72 717.356C2707.72 694.266 2707.72 637.169 2675.72 637.169 2649.37 637.169 2625.84 660.763 2615.01 682.921 2601.38 711.222 2602.3 739.523 2602.3 771.151L2602.3 865 2567 865 2567 515Z" fill="#B58045" fill-rule="evenodd"/><path d="M3043.39 607C3077.35 607 3099 629.158 3099 663.112L3099 865 3063.67 865 3063.67 663.112C3063.67 646.137 3054.72 636.705 3040.57 636.705 3024.55 636.705 3010.9 649.917 3003.35 663.112L3003.35 865 2968 865 2968 665.97C2968 652.734 2964.27 637.168 2948.24 637.168 2931.28 637.168 2914.3 652.271 2907.72 667.851L2907.72 865 2872.38 865 2872.38 690.963C2872.38 656.537 2867.67 633.847 2862 607.459L2897.35 607.459 2902.53 630.103C2917.6 616.891 2930.79 607.459 2951.99 607.459 2975.1 607.459 2981.22 613.12 2994.91 630.562 3009.48 617.341 3022.69 607 3043.39 607Z" fill="#B58045" fill-rule="evenodd"/><path d="M3278.18 697 3282 697.267 3282 726.708 3270.4 728.002C3243.53 734.38 3232.62 761.637 3232.62 789.591 3232.62 813.111 3244.93 840.389 3272.46 840.389L3282 839.391 3282 869.015 3272.46 870C3224.03 870 3197 832.374 3197 787.725 3197 739.313 3226.91 697 3278.18 697Z" fill="#B58045" fill-rule="evenodd"/><path d="M3282 608 3282 637.754 3271.19 638.903C3254.94 642.216 3239.36 649.637 3224.04 656L3216 624.901C3234.15 617.835 3251.24 611.572 3269.86 608.882L3282 608Z" fill="#B58045" fill-rule="evenodd"/><path d="M3289.02 608C3336.99 608 3366.19 647.554 3366.19 689.39L3366.19 798.542C3366.19 821.613 3369.47 845.142 3377 866.772L3344.07 871 3335.15 839.468C3322.43 854.651 3308.42 864.269 3291.08 868.128L3282 869.076 3282 839.431 3282.3 839.398C3303.95 834.708 3318.12 814.838 3330.92 797.137L3330.92 738.8C3315.88 732.202 3299.87 726.56 3282.9 726.56L3282 726.661 3282 697.199 3292.14 697.915C3305.86 699.808 3318.91 704.211 3330.92 709.14L3330.92 685.167C3330.92 657.392 3313.95 637.633 3287.63 637.633L3282 638.236 3282 608.514 3289.02 608Z" fill="#B58045" fill-rule="evenodd"/><path d="M3485 515 3520.32 515 3520.32 723.026C3553.78 688.578 3588.21 653.212 3615.08 612.648L3659.84 612.648C3609.86 670.69 3595.26 690.449 3558.07 728.201L3682 865 3635.32 865 3536.36 748.956 3520.32 765.021 3520.32 865 3485 865 3485 515Z" fill="#B58045" fill-rule="evenodd"/><path d="M3845 608 3845 637.37 3832.9 638.578C3802.36 645.056 3786.41 673.753 3778.09 718.355L3845 718.355 3845 748.092 3778.59 748.092C3780.23 808.791 3804.41 834.089 3836.5 839.465L3845 840.141 3845 870 3821.83 867.431C3765.88 854.245 3743 797.914 3743 740.533 3743 682.726 3766.6 624.196 3823.37 610.466L3845 608Z" fill="#B58045" fill-rule="evenodd"/><path d="M3929 813 3944 844.849C3912.57 859.085 3882.56 870 3847.83 870L3845 869.681 3845 839.63 3850.63 840.087C3878.31 840.087 3906.01 827.25 3929 813Z" fill="#B58045" fill-rule="evenodd"/><path d="M3849.69 608C3932.91 608 3946 701.506 3946 728.732L3946 748 3845 748 3845 718.397 3910.93 718.397C3909.51 677.052 3886.18 637.589 3846.87 637.589L3845 637.778 3845 608.54 3849.69 608Z" fill="#B58045" fill-rule="evenodd"/><path d="M4169.57 608C4216.71 608 4228 654.128 4228 692.267L4192.67 692.267C4191.74 673.442 4194.55 637.647 4167.69 637.647 4141.8 637.647 4094.21 677.183 4094.21 760.054L4094.21 865 4058.87 865 4058.87 720.532C4058.87 678.625 4055.56 644.707 4049 613.178L4083.38 613.178 4091.36 661.192C4110.71 631.545 4131.9 608 4169.57 608Z" fill="#B58045" fill-rule="evenodd"/><path d="M4378.05 608C4409.56 608 4434.44 619.309 4459.35 637.164L4443.85 665.862C4424.1 651.744 4402.03 637.626 4376.66 637.626 4355.51 637.626 4335.76 653.148 4335.76 675.747 4335.76 700.167 4364.9 712.4 4384.16 719.473 4423.67 734.062 4465 750.54 4465 800.4 4465 841.76 4427.41 870 4388.42 870 4350.32 870 4312.72 851.166 4285 826.27L4304.23 798.035C4324 819.216 4356.43 840.374 4386.08 840.374 4409.56 840.374 4429.75 827.176 4429.75 801.791 4429.75 768.857 4403.45 759.946 4377.62 750.046 4341.87 736.399 4300.5 719.473 4300.5 674.311 4300.5 637.626 4334.33 608 4378.05 608Z" fill="#B58045" fill-rule="evenodd"/><path d="M520.85 7.9999C520.85 7.9999 530.122 26.0382 534.079 26.7302 536.047 27.0689 538.637 27.2064 541.655 27.2064 555.824 27.2064 579.513 24.0544 593.477 23.4035 603.928 22.919 619.505 22.1329 629.829 21.1459L633 20.7393 633 48.0352C308.45 48.0352 45.3515 315.989 45.3515 646.529 45.3515 977.064 308.45 1245.02 633 1245.02L633 1271.15 628.643 1271.88C627.086 1272.23 625.668 1272.66 624.549 1273.2 620.05 1275.34 615.446 1279.99 614.836 1283.45 614.231 1286.91 611.526 1291 611.526 1291L564.798 1290.24C564.798 1290.24 566.247 1280.78 563.258 1276.55 560.259 1272.32 558.034 1270.65 555.224 1268.47 552.413 1266.29 546.144 1265.04 546.144 1265.04 546.144 1265.04 519.667 1259.72 511.885 1258.48 504.094 1257.24 470.766 1248.5 467.194 1246.83 464.64 1245.64 458.784 1244.69 454.405 1244.69 452.667 1244.69 451.172 1244.84 450.186 1245.18 446.719 1246.37 442.134 1246.29 439.295 1249.95 436.457 1253.62 431.545 1260.68 431.545 1260.68L390.197 1245.47C390.197 1245.47 391.023 1234.3 390.188 1229.48 389.344 1224.66 386.822 1220.22 384.566 1218.56 382.315 1216.91 353.962 1202.77 346.295 1198.63 338.619 1194.48 303.121 1172.82 298.825 1170.98 294.762 1169.24 291.694 1168.43 288.892 1168.43 288.732 1168.43 288.571 1168.43 288.406 1168.43 285.472 1168.54 279.038 1170.09 276.649 1171.59 274.255 1173.08 269.816 1178.56 269.816 1178.56L233.237 1151.05C233.237 1151.05 239.455 1142.8 239.51 1137.57 239.57 1132.33 239.24 1128.56 236.392 1124.71 233.535 1120.87 209.64 1098.09 204.678 1093.78 199.716 1089.49 170.841 1057.12 167.264 1053.4 163.692 1049.67 158.643 1047.87 155.929 1047.86L155.892 1047.86C153.159 1047.86 147.161 1048.39 144.456 1050.53 141.741 1052.68 138.939 1053.37 138.939 1053.37L111.687 1017.54C111.687 1017.54 119.143 1008.64 120.042 1005.05 120.927 1001.46 121.775 993.618 121.188 991.167 120.596 988.716 103.167 960.052 99.5027 953.867 95.8389 947.686 78.7072 913.286 76.4053 908.462 74.0941 903.633 71.4071 897.576 67.3212 896.077 65.3172 895.353 60.4609 894.396 55.9764 894.396L55.9673 894.396C51.2716 894.396 45.9429 897.154 45.9429 897.154L30.9343 851.905C30.9343 851.905 39.0877 846.727 41.7701 843.314 44.4481 839.905 46.1769 835.315 45.9429 830.857 45.7137 826.403 38.0694 797.813 36.5746 790.464 35.0754 783.124 28.6231 745.421 27.2063 738.841 25.7804 732.262 23.3407 724.807 20.6352 722.553 19.2183 721.367 14.22 719.869 9.80414 718.723 5.81468 717.674 1.02724 716.451 1.02724 716.451L0 670.069C0 670.069 7.99734 667.545 12.0554 664.306 16.1229 661.057 19.7733 653.52 19.7733 653.52 19.7733 653.52 21.6899 613.137 21.9787 603.712 22.2676 594.292 25.918 552.754 25.918 552.754 25.918 552.754 23.5515 544.2 19.796 541.341 16.0405 538.482 8.29559 534.317 8.29559 534.317L18.4113 488.537C18.4113 488.537 30.2833 488.125 34.3782 485.288 38.4684 482.452 43.0129 474.558 43.0129 474.558 43.0129 474.558 52.019 444.561 54.908 435.444 57.7922 426.331 75.4055 385.292 75.4055 385.292 75.4055 385.292 77.5882 377.723 76.7444 373.366 75.9147 369.008 71.3612 361.985 71.3612 361.985L64.9594 355.708 86.2229 316.749C86.2229 316.749 95.8024 319.498 100.856 319.498 101.328 319.498 101.75 319.475 102.13 319.425 106.624 318.825 113.026 313.446 113.026 313.446 113.026 313.446 133.583 282.831 138.865 275.834 144.153 268.838 168.8 237.517 170.974 234.47 173.143 231.424 176.256 227.002 175.202 222.544 174.693 220.382 175.165 216.844 173.569 213.193 171.859 209.271 168.08 205.298 168.08 205.298L199.991 172.351C199.991 172.351 208.342 177.831 211.047 178.436 212.946 178.857 215.72 179.338 218.389 179.338 219.526 179.338 220.631 179.251 221.659 179.045 225.079 178.33 233.104 172.64 233.104 172.64 233.104 172.64 259.953 150.391 267.28 145.049 274.599 139.706 304.791 117.92 304.791 117.92 304.791 117.92 308.881 113.907 310.468 108.404 312.045 102.901 308.652 88.4414 308.652 88.4414L347.661 67.5899C347.661 67.5899 353.187 75.0354 356.172 77.5048 358.465 79.4017 363.051 80.2859 368.012 80.2859 369.507 80.2859 371.039 80.208 372.552 80.0475 379.082 79.3649 387.363 73.9357 387.363 73.9357 387.363 73.9357 414.657 62.6326 424.947 58.9304 435.246 55.2286 458.935 46.3721 463.7 44.7638 468.46 43.1602 473.141 40.2416 474.118 35.0596 475.104 29.8822 476.017 18.7212 476.017 18.7212L520.85 7.9999Z" fill="#B58045" fill-rule="evenodd"/><path d="M655.364 0 700.797 1.32903C700.797 1.32903 701.961 16.0995 707.268 21.9609 712.566 27.8269 730.731 29.6968 757.812 34.7791 783.835 39.6737 799.078 46.6397 809.491 46.6397 809.917 46.6397 810.334 46.6306 810.737 46.6029 821.177 46.0028 823.709 43.6835 826.521 40.5535 829.328 37.4235 833.833 30.8426 833.833 30.8426L876.025 47.3498C876.025 47.3498 873.351 59.1508 875.581 65.5805 877.811 72.0149 882.262 75.5484 889.872 79.7278 893.439 81.68 906.787 89.0768 918.936 95.8136 932.677 103.435 945.151 110.369 945.151 110.369 945.151 110.369 964.635 124.108 970.56 124.828 971.7 124.97 972.845 125.025 973.971 125.025 978.693 125.025 983.111 123.929 985.758 122.724 989.041 121.23 994.857 113.494 994.857 113.494L1029.94 141.903C1029.94 141.903 1026.1 151.22 1026.1 155.579 1026.1 159.932 1026.17 163.562 1029.06 168.094 1031.96 172.622 1038.71 178.979 1038.71 178.979L1070.82 208.836 1098.45 239.486C1098.45 239.486 1100.57 241.626 1105.16 243.335 1108 244.394 1111.17 244.596 1113.8 244.596 1115.43 244.596 1116.87 244.518 1117.91 244.518 1120.61 244.518 1128.53 239.747 1128.53 239.747L1154.79 276.919C1154.79 276.919 1148.49 282.015 1147.22 285.869 1145.94 289.719 1145.59 298.22 1145.59 298.22L1147.68 305.621 1165.04 336.578 1179.49 364.07 1189.13 383.703C1189.13 383.703 1191.44 391.604 1194.32 394.982 1197.21 398.355 1201.78 400.477 1205.52 400.619 1205.7 400.628 1205.91 400.628 1206.14 400.628 1210.4 400.628 1220.91 399.358 1220.91 399.358L1236.08 441.47C1236.08 441.47 1229.03 445.169 1226.99 447.712 1224.94 450.26 1221.67 453.715 1221.19 456.823 1220.72 459.916 1220.59 470.195 1220.59 470.195L1231.13 511.546 1240.83 562.971C1240.83 562.971 1242.31 567.563 1246.93 571 1249.41 572.833 1253.13 575.995 1257.08 577.397 1260.33 578.552 1263.96 579.45 1263.96 579.45L1267 624.037C1267 624.037 1255.72 626.727 1252.16 630.004 1248.59 633.29 1247.23 636.548 1246.93 640.576 1246.66 644.609 1246.05 669.201 1246.05 669.201L1242.46 707.821 1239.76 736.995C1239.76 736.995 1240.95 745.459 1242.9 748.755 1244.84 752.04 1248.54 756.174 1251.98 757.829 1255.41 759.488 1260.46 761.555 1260.46 761.555L1249.74 805.811C1249.74 805.811 1241.33 807.571 1237.29 808.46 1233.25 809.358 1229.37 811.608 1227.46 813.813 1225.55 816.022 1222.22 824.578 1222.22 824.578L1211.62 858.028 1198.04 892.024C1198.04 892.024 1191.26 905.648 1190.66 910.002 1190.06 914.365 1190.1 921.532 1191.84 924.905 1193.58 928.283 1201.99 936.903 1201.99 936.903L1180.47 974.391C1180.47 974.391 1172.71 973.502 1167.11 973.502L1166.65 973.502C1161.02 973.557 1157.72 975.129 1156.09 977.672 1154.46 980.216 1133.34 1009.47 1131.4 1012.01 1129.45 1014.56 1102.26 1049.98 1099.15 1054.16 1096.03 1058.32 1092.35 1063.75 1092.73 1067.84 1093.5 1076.4 1099.58 1087.02 1099.58 1087.02L1067.68 1119.9C1067.68 1119.9 1061.84 1113.99 1058.06 1112.58 1056.56 1112.01 1054.55 1111.79 1052.48 1111.79 1049.32 1111.79 1046.05 1112.32 1044.38 1113.02 1041.61 1114.18 1018.29 1133.11 1010.65 1139.34 1003.02 1145.57 971.274 1167.89 966.791 1170.72 962.308 1173.55 959.868 1176.45 958.526 1180.62 957.185 1184.8 955.93 1190.8 956.552 1194.13 957.185 1197.48 958.947 1202.64 958.947 1202.64L920.227 1224.21C920.227 1224.21 913.66 1216.77 909.187 1214.97 906.105 1213.73 902.181 1213.06 898.792 1213.06 897.272 1213.06 895.848 1213.19 894.662 1213.47 890.847 1214.37 854.957 1228.34 849.077 1230.71 843.198 1233.08 807.609 1244.41 802.989 1246.64 798.378 1248.87 794.385 1251.76 793.162 1256.6 791.939 1261.45 791.381 1273.5 791.381 1273.5L747.989 1283C747.989 1283 743.777 1274.48 740.718 1270.38 737.664 1266.28 733.332 1264.71 729.866 1264.11 729.627 1264.06 729.257 1264.05 728.776 1264.05 722.223 1264.05 694.712 1267.63 687.221 1269.01 679.651 1270.42 649.713 1270.51 643.069 1270.51L642.021 1270.51C640.155 1270.51 636.907 1270.64 633.567 1271.05L633 1271.14 633 1245C957.088 1245 1219.81 976.985 1219.81 646.369 1219.81 315.749 957.088 47.7305 633 47.7305L633 20.4279 638.009 19.7842C650.497 17.3463 655.364 0 655.364 0Z" fill="#B58045" fill-rule="evenodd"/><path d="M292.898 772 293 772.31 293 813.476 292.898 813.156 275.376 869.108 293 869.108 293 881.231 271.921 881.231 259.587 922 244 922 292.898 772Z" fill="#B58045" fill-rule="evenodd"/><path d="M523 817 523 829.086 513.222 831.174C504.082 835.618 498.97 846.457 496.111 862.062L523 862.062 523 874.21 496.299 874.21C496.867 895.462 504.092 906.087 514.267 910.071L523 911.59 523 924 513.677 922.949C491.2 917.564 482 894.561 482 871.126 482 847.522 491.49 823.615 514.311 818.007L523 817Z" fill="#B58045" fill-rule="evenodd"/><path d="M388.022 788 402.385 788 402.385 819.413 438.936 819.413 438.936 831.488 402.385 831.488 402.385 889.901C402.385 899.859 402.56 911.934 415.576 911.934 426.5 911.934 433.201 902.929 437.227 893.929L451 897.371C444.107 912.122 432.432 924 415.201 924 398.543 924 388.022 915.948 388.022 885.31L388.022 831.488 366 831.488 366 819.413 388.022 819.413 388.022 788Z" fill="#B58045" fill-rule="evenodd"/><path d="M293 773 342 922 326.396 922 314.085 881.419 293 881.419 293 869.352 310.617 869.352 293 813.976 293 773Z" fill="#B58045" fill-rule="evenodd"/><path d="M557.79 901 564 913.837C550.985 919.597 538.542 924 524.155 924L523 923.873 523 911.528 525.331 911.924C536.803 911.924 548.261 906.751 557.79 901Z" fill="#B58045" fill-rule="evenodd"/><path d="M719 819 763 819 763 922 748.442 922 748.442 831.137 719 831.137 719 819Z" fill="#B58045" fill-rule="evenodd"/><path d="M868 817 868 829.087 858.227 831.176C849.097 835.62 843.976 846.459 841.106 862.064L868 862.064 868 874.212 841.302 874.212C841.873 895.464 849.098 906.088 859.271 910.072L868 911.591 868 924 858.684 922.95C836.203 917.565 827 894.562 827 871.128 827 847.524 836.486 823.617 859.294 818.009L868 817Z" fill="#B58045" fill-rule="evenodd"/><path d="M524.956 817C559.552 817 565 855.07 565 866.162L565 874 523 874 523 861.943 550.41 861.943C549.838 845.118 540.119 829.053 523.784 829.053L523 829.216 523 817.221 524.956 817Z" fill="#B58045" fill-rule="evenodd"/><path d="M754.996 781C761.681 781 767 786.151 767 793.007 767 799.863 761.681 805 754.996 805 748.323 805 743 799.863 743 793.007 743 786.151 748.323 781 754.996 781Z" fill="#B58045" fill-rule="evenodd"/><path d="M603 779 646 779 646 922 631.777 922 631.777 791.145 603 791.145 603 779Z" fill="#B58045" fill-rule="evenodd"/><path d="M901.94 901 908 913.837C895.308 919.597 883.17 924 869.136 924L868 923.872 868 911.528 870.275 911.924C881.451 911.924 892.65 906.751 901.94 901Z" fill="#B58045" fill-rule="evenodd"/><path d="M1000.19 817C1019.4 817 1024 835.849 1024 851.431L1009.58 851.431C1009.21 843.734 1010.37 829.118 999.423 829.118 988.849 829.118 969.465 845.271 969.465 879.117L969.465 922 955.049 922 955.049 862.965C955.049 845.851 953.689 832.007 951 819.121L965.035 819.121 968.298 838.724C976.17 826.62 984.814 817 1000.19 817Z" fill="#B58045" fill-rule="evenodd"/><path d="M869.886 817C903.684 817 909 855.07 909 866.162L909 874 868 874 868 861.943 894.764 861.943C894.178 845.118 884.685 829.053 868.756 829.053L868 829.214 868 817.218 869.886 817Z" fill="#B58045" fill-rule="evenodd"/><path d="M1033 255 634.067 644 420 387.109 631.57 584.165 1033 255Z" fill="#B58045" fill-rule="evenodd"/></g></svg>