<?xml version="1.0" standalone="no"?>
<!DOCTYPE svg PUBLIC "-//W3C//DTD SVG 20010904//EN"
 "http://www.w3.org/TR/2001/REC-SVG-20010904/DTD/svg10.dtd">
<svg version="1.0" xmlns="http://www.w3.org/2000/svg"
 width="1291.000000pt" height="1291.000000pt" viewBox="0 0 1291.000000 1291.000000"
 preserveAspectRatio="xMidYMid meet">
<metadata>
Created by potrace 1.14, written by Peter Selinger 2001-2017
</metadata>
<g transform="translate(0.000000,1291.000000) scale(0.100000,-0.100000)"
fill="#000000" stroke="none">
<path d="M6664 12868 c-28 -61 -70 -115 -104 -133 -48 -25 -120 -35 -374 -50
-132 -9 -312 -22 -400 -30 -89 -8 -196 -15 -239 -15 -72 0 -80 2 -103 28 -15
15 -44 57 -66 95 -22 37 -42 67 -44 67 -7 0 -439 -102 -442 -105 -1 -1 -7 -39
-13 -85 -11 -91 -28 -133 -60 -151 -12 -6 -135 -53 -273 -104 -315 -116 -435
-164 -561 -222 -164 -77 -249 -71 -332 21 l-48 54 -185 -100 c-102 -55 -189
-103 -193 -107 -5 -5 -3 -46 4 -93 11 -82 11 -87 -13 -139 -23 -51 -36 -62
-254 -221 -126 -91 -287 -214 -359 -273 -71 -59 -154 -124 -184 -144 -49 -33
-61 -36 -120 -35 -55 0 -74 5 -117 31 l-51 31 -163 -163 -162 -162 32 -45 c39
-56 53 -155 27 -204 -8 -16 -97 -135 -197 -264 -100 -129 -233 -312 -297 -405
-138 -206 -157 -221 -258 -218 -38 2 -83 4 -99 5 -28 3 -33 -4 -133 -186
l-103 -190 34 -35 c19 -20 47 -62 61 -94 38 -82 30 -116 -81 -383 -54 -130
-123 -317 -160 -438 -77 -249 -82 -263 -129 -314 -36 -41 -90 -62 -154 -62
-16 0 -32 -4 -35 -8 -3 -5 -24 -92 -46 -193 -23 -101 -45 -201 -50 -222 l-8
-37 67 -44 c56 -36 71 -52 88 -92 l21 -49 -18 -225 c-10 -124 -24 -351 -30
-505 -7 -154 -17 -289 -23 -300 -27 -53 -70 -94 -127 -119 l-60 -27 0 -83 c0
-46 3 -151 7 -233 l6 -151 83 -22 c46 -12 95 -30 108 -41 37 -29 60 -113 116
-422 28 -153 71 -360 96 -460 60 -240 53 -288 -52 -367 -39 -29 -53 -46 -50
-58 3 -9 37 -109 75 -222 59 -178 71 -204 87 -201 10 2 58 5 106 5 79 1 89 -1
113 -24 15 -14 78 -126 140 -250 109 -218 133 -262 299 -544 68 -116 76 -135
76 -180 0 -72 -15 -118 -55 -171 -19 -25 -35 -48 -35 -51 0 -13 263 -349 276
-352 8 -2 29 6 48 17 18 12 54 24 80 27 80 11 109 -10 288 -205 89 -97 250
-262 358 -368 108 -106 203 -206 210 -222 20 -50 9 -142 -24 -191 -15 -23 -26
-43 -24 -44 2 -2 85 -64 184 -139 l181 -135 38 38 c67 68 175 78 277 25 29
-15 136 -77 236 -137 101 -60 272 -154 380 -210 109 -56 208 -110 220 -122 38
-34 52 -81 52 -175 l0 -86 207 -76 208 -76 46 61 c55 73 81 87 174 93 58 4 87
-1 170 -27 134 -41 389 -102 614 -145 202 -39 249 -58 298 -121 20 -27 28 -50
31 -94 l4 -59 62 -6 c33 -3 140 -5 236 -3 l174 3 18 50 c26 71 81 120 149 133
30 6 162 13 294 17 151 4 288 13 370 25 72 11 178 24 237 31 104 11 108 11
155 -12 39 -19 56 -37 88 -91 22 -36 43 -69 46 -72 6 -7 380 69 415 83 18 8
22 21 27 90 7 94 24 131 71 160 19 12 126 52 238 90 112 38 311 110 443 161
319 123 377 128 478 40 25 -22 48 -40 52 -40 9 0 344 185 368 203 15 11 15 17
2 60 -11 37 -12 60 -4 105 20 105 23 109 275 286 100 70 255 186 345 257 228
182 248 196 296 204 59 9 95 -1 145 -40 l43 -35 158 158 c121 120 157 162 153
177 -2 11 -16 51 -30 88 -30 79 -32 116 -10 160 9 18 101 142 203 277 103 135
238 315 299 401 62 86 122 165 133 175 18 16 37 19 125 19 l103 0 107 188 107
188 -40 42 c-67 70 -73 84 -73 167 0 64 5 87 36 155 79 178 175 430 229 600
64 202 92 264 129 289 23 14 71 29 168 50 25 6 28 13 77 215 28 116 51 216 51
224 0 7 -23 24 -51 37 -27 13 -67 43 -89 66 -63 69 -66 104 -35 432 15 152 32
379 39 504 14 264 14 265 114 313 l62 30 0 226 0 226 -39 12 c-54 16 -152 83
-173 118 -9 16 -40 149 -68 296 -28 147 -73 354 -100 459 -63 245 -67 319 -19
391 17 26 51 59 75 73 24 14 44 29 44 32 0 4 -33 99 -74 212 l-75 205 -98 -3
c-89 -3 -101 -2 -133 20 -20 13 -44 42 -55 67 -63 138 -249 502 -338 663 -58
102 -110 201 -116 219 -26 74 -7 171 43 227 l33 37 -122 173 c-68 96 -127 178
-133 184 -6 6 -23 3 -50 -11 -55 -28 -158 -29 -211 -2 -22 12 -95 83 -176 173
-76 84 -216 225 -309 314 -236 221 -262 252 -276 320 -10 48 -9 64 10 126 12
38 20 71 18 73 -31 29 -343 275 -347 275 -4 0 -26 -20 -49 -44 -33 -35 -53
-47 -93 -55 -97 -21 -129 -11 -277 85 -48 31 -220 131 -382 221 -162 90 -309
175 -328 190 -54 41 -76 101 -69 195 l5 77 -205 81 c-112 44 -208 80 -213 80
-4 0 -17 -15 -29 -32 -27 -45 -80 -95 -114 -107 -57 -22 -157 -13 -311 29
-197 53 -241 63 -446 100 -208 37 -313 64 -350 90 -32 23 -53 70 -70 156 l-12
61 -157 6 c-86 4 -188 7 -227 7 l-71 0 -19 -42z m326 -463 c712 -67 1372 -253
2005 -565 261 -128 413 -215 630 -357 708 -465 1321 -1090 1771 -1806 446
-710 744 -1518 863 -2342 49 -335 55 -441 56 -885 0 -444 -7 -551 -56 -890
-126 -872 -452 -1725 -938 -2460 -465 -703 -1088 -1313 -1791 -1752 -798 -500
-1673 -790 -2625 -870 -218 -18 -719 -15 -945 6 -1172 108 -2231 535 -3145
1269 -241 194 -582 526 -789 767 -209 244 -471 615 -636 900 -100 174 -286
556 -358 735 -226 564 -350 1068 -419 1700 -22 205 -25 916 -5 1125 82 832
290 1546 656 2255 296 573 655 1057 1132 1525 1014 995 2322 1575 3741 1660
203 12 653 4 853 -15z"/>
<path d="M8434 8700 l-1988 -1630 -46 43 c-25 24 -472 441 -995 927 -522 486
-977 908 -1009 939 -33 31 -51 44 -40 29 43 -61 2110 -2537 2116 -2535 4 1
867 841 1918 1867 1051 1026 1941 1893 1978 1927 37 34 64 63 60 63 -4 0 -901
-734 -1994 -1630z"/>
<path d="M2815 4448 c-131 -403 -240 -739 -243 -745 -3 -10 16 -13 77 -13 l80
0 11 38 c5 20 32 109 59 197 l48 160 213 0 212 0 49 -160 c27 -88 54 -177 59
-197 l11 -38 80 0 c61 0 80 3 77 13 -3 6 -112 338 -243 737 -130 399 -240 728
-244 733 -4 4 -114 -323 -246 -725z m334 40 c44 -141 81 -259 81 -262 0 -3
-77 -6 -171 -6 -158 0 -171 1 -167 18 33 120 164 520 169 514 3 -4 43 -123 88
-264z"/>
<path d="M6160 5060 l0 -60 145 0 145 0 0 -655 0 -655 70 0 70 0 0 715 0 715
-215 0 -215 0 0 -60z"/>
<path d="M7618 5084 c-77 -41 -75 -169 2 -209 84 -43 180 13 180 105 0 92 -99
149 -182 104z"/>
<path d="M4010 4875 l0 -155 -110 0 -110 0 0 -65 0 -65 109 0 109 0 4 -347 c5
-393 8 -417 80 -498 51 -58 114 -79 212 -73 84 6 145 32 212 91 43 38 124 148
124 168 0 8 -44 22 -107 35 -29 6 -33 3 -52 -32 -57 -112 -170 -169 -251 -127
-68 35 -70 46 -70 436 l0 347 180 0 180 0 0 65 0 65 -180 0 -180 0 0 155 0
155 -75 0 -75 0 0 -155z"/>
<path d="M5267 4730 c-145 -37 -262 -178 -302 -365 -19 -89 -19 -240 0 -330
28 -133 103 -252 198 -312 106 -67 278 -70 464 -8 156 52 152 48 114 123 l-31
62 -71 -36 c-39 -19 -106 -44 -148 -55 -68 -18 -84 -19 -154 -8 -91 14 -142
45 -181 111 -31 53 -56 147 -56 210 l0 48 340 0 340 0 0 71 c0 205 -98 397
-237 466 -48 23 -72 28 -147 30 -50 1 -108 -2 -129 -7z m170 -125 c30 -9 65
-29 88 -52 46 -45 94 -143 102 -212 l6 -51 -271 0 -270 0 9 39 c15 65 50 154
77 191 35 50 68 72 126 86 68 16 74 16 133 -1z"/>
<path d="M8721 4730 c-58 -12 -145 -65 -188 -115 -169 -192 -177 -606 -16
-810 91 -116 256 -159 450 -119 73 15 219 67 236 84 5 4 -5 35 -22 68 l-31 61
-76 -39 c-111 -57 -197 -74 -291 -59 -87 14 -139 47 -177 111 -31 53 -56 147
-56 210 l0 48 335 0 335 0 0 73 c-1 211 -102 406 -243 468 -59 25 -181 34
-256 19z m154 -121 c63 -16 126 -75 159 -149 26 -58 48 -154 38 -165 -3 -3
-123 -5 -268 -5 l-262 0 9 39 c15 65 50 154 77 191 35 50 68 72 126 86 66 16
69 16 121 3z"/>
<path d="M10026 4724 c-35 -11 -65 -32 -110 -77 -35 -34 -72 -75 -83 -91 l-20
-29 -12 79 c-19 122 -12 114 -92 114 -38 0 -69 -3 -69 -7 1 -5 8 -48 16 -98
11 -67 17 -199 21 -507 l5 -418 74 0 74 0 0 268 c0 235 2 279 20 346 35 140
110 245 206 292 100 49 152 10 163 -122 l6 -79 74 -3 74 -3 -6 73 c-16 181
-98 278 -237 277 -30 0 -77 -7 -104 -15z"/>
<path d="M7320 4660 l0 -60 145 0 145 0 0 -455 0 -455 75 0 75 0 0 515 0 515
-220 0 -220 0 0 -60z"/>
</g>
</svg>
